<svg width="161" height="201" viewBox="0 0 161 201" fill="none" xmlns="http://www.w3.org/2000/svg">
<g id="4137183_building_construction_industry_measurement_icon 1">
<g id="Layer_2">
<g id="Group">
<g id="Group_2">
<g id="Group_3">
<g id="Group_4">
<g id="Group_5">
<path id="Vector" d="M83.3145 25.0443V34.4805C83.3145 36.1276 81.9823 37.4598 80.3351 37.4598C78.6879 37.4598 77.3557 36.1276 77.3557 34.4805V25.0443C77.3557 23.3972 78.6879 22.0649 80.3351 22.0649C81.9823 22.0649 83.3145 23.3972 83.3145 25.0443Z" fill="white"/>
</g>
<g id="Group_6">
<path id="Vector_2" d="M105.128 25.0443V34.4805C105.128 36.1276 103.796 37.4598 102.148 37.4598C100.501 37.4598 99.1689 36.1276 99.1689 34.4805V25.0443C99.1689 23.3972 100.501 22.0649 102.148 22.0649C103.796 22.0649 105.128 23.3972 105.128 25.0443Z" fill="white"/>
</g>
<g id="Group_7">
<path id="Vector_3" d="M126.941 25.0443V34.4805C126.941 36.1276 125.609 37.4598 123.962 37.4598C122.315 37.4598 120.982 36.1276 120.982 34.4805V25.0443C120.982 23.3972 122.315 22.0649 123.962 22.0649C125.609 22.0649 126.941 23.3972 126.941 25.0443Z" fill="white"/>
</g>
<g id="Group_8">
<path id="Vector_4" d="M148.75 25.0443V34.4805C148.75 36.1276 147.418 37.4598 145.771 37.4598C144.124 37.4598 142.792 36.1276 142.792 34.4805V25.0443C142.792 23.3972 144.124 22.0649 145.771 22.0649C147.418 22.0649 148.75 23.3972 148.75 25.0443Z" fill="white"/>
</g>
</g>
<g id="Group_9">
<path id="Vector_5" d="M180.145 57.4897C180.145 59.1369 178.812 60.4691 177.165 60.4691L130.231 60.4691L174.186 104.419V72.6463C174.186 70.9991 175.518 69.6669 177.165 69.6669C178.812 69.6669 180.145 70.9991 180.145 72.6463V111.612C180.145 112.817 179.417 113.902 178.306 114.366C177.191 114.826 175.91 114.57 175.058 113.719L120.936 59.5966C120.084 58.7453 119.829 57.4642 120.289 56.349C120.748 55.2339 121.838 54.5103 123.043 54.5103L177.165 54.5103C178.808 54.5103 180.145 55.8426 180.145 57.4897Z" fill="white"/>
</g>
<g id="Group_10">
<path id="Vector_6" d="M212.59 25.0443L212.59 137.742C212.59 139.389 211.258 140.721 209.611 140.721C207.963 140.721 206.631 139.389 206.631 137.742L206.631 28.0237L51.8991 28.0237L206.631 182.752V157.682C206.631 156.035 207.963 154.703 209.611 154.703C211.258 154.703 212.59 156.035 212.59 157.682V189.945C212.59 191.149 211.862 192.235 210.751 192.698C209.636 193.158 208.355 192.903 207.504 192.051L42.6034 27.1511C41.7522 26.2999 41.4968 25.0187 41.9565 23.9036C42.4161 22.7885 43.5057 22.0649 44.7103 22.0649L209.611 22.0649C211.258 22.0649 212.59 23.3971 212.59 25.0443Z" fill="white"/>
</g>
</g>
<g id="Group_11">
<g id="Group_12">
<path id="Vector_7" d="M47.0725 56.2342C47.0725 56.8684 46.8725 57.5068 46.4596 58.0431C45.5998 59.1668 44.0761 59.5243 42.8162 58.9284C41.9309 58.5624 41.2712 57.792 41.0542 56.8556C40.8201 55.8512 41.118 54.7956 41.8501 54.0678L41.8884 54.0295C43.0503 52.8675 44.9401 52.8675 46.1021 54.0295L46.2 54.1274C46.7788 54.7062 47.0725 55.4681 47.0725 56.2342Z" fill="white"/>
</g>
<g id="Group_13">
<path id="Vector_8" d="M162.732 175.784C162.732 178.951 161.528 182.113 159.119 184.522L149.832 193.809C145.014 198.627 137.173 198.627 132.355 193.809L124.081 185.535C122.919 184.373 122.919 182.483 124.081 181.321C125.243 180.159 127.133 180.159 128.295 181.321L136.569 189.596C139.063 192.09 143.124 192.09 145.618 189.596L154.905 180.308C157.399 177.814 157.399 173.754 154.905 171.26L49.0816 65.4362C48.5453 66.994 47.6558 68.4496 46.43 69.6797C44.2678 71.8418 41.2799 73.0208 38.2239 72.9144C38.3303 75.9662 37.1513 78.9541 34.9891 81.1205C33.7591 82.3506 32.3034 83.2401 30.7456 83.7764L119.927 172.954C121.089 174.116 121.089 176.005 119.927 177.167C118.765 178.329 116.875 178.329 115.713 177.167L20.8626 82.3165C19.7943 81.2482 19.6964 79.5542 20.6285 78.371C21.5606 77.1835 23.2333 76.8812 24.5187 77.6687C26.5319 78.8945 29.107 78.5795 30.7797 76.9068C31.8012 75.8853 32.3375 74.5275 32.2736 73.0847C32.2055 71.4503 32.8312 69.8499 33.9932 68.688C35.1551 67.5217 36.7597 66.8918 38.3984 66.9599C39.8455 67.0195 41.199 66.4917 42.2248 65.466C43.8932 63.7975 44.2082 61.2267 42.9909 59.2135C42.212 57.9239 42.5185 56.2554 43.7017 55.3275C44.8892 54.3997 46.5789 54.5018 47.6473 55.5659L159.119 167.046C161.528 169.455 162.732 172.617 162.732 175.784Z" fill="white"/>
</g>
<g id="Group_14">
<path id="Vector_9" d="M140.442 172.154C140.442 172.915 140.153 173.677 139.57 174.26C138.408 175.422 136.518 175.422 135.356 174.26L50.5712 89.4756C49.4092 88.3137 49.4092 86.4239 50.5712 85.2619C51.7331 84.1 53.6229 84.1 54.7849 85.2619L139.57 170.047C140.148 170.626 140.442 171.387 140.442 172.154Z" fill="white"/>
</g>
<g id="Group_15">
<path id="Vector_10" d="M48.5665 80.2778C48.5665 80.4694 48.5453 80.6651 48.507 80.8567C48.4686 81.0482 48.4133 81.2355 48.3367 81.4142C48.2643 81.5973 48.1707 81.7675 48.0643 81.9293C47.9536 82.0952 47.8302 82.2442 47.694 82.3847C47.1364 82.938 46.3703 83.2572 45.5872 83.2572C45.3914 83.2572 45.1956 83.2359 45.0041 83.1976C44.8125 83.1593 44.6252 83.0997 44.4465 83.0274C44.2677 82.955 44.0932 82.8614 43.9315 82.755C43.7697 82.6443 43.6165 82.5209 43.4803 82.3847C43.3441 82.2442 43.2164 82.0952 43.11 81.9293C43.0036 81.7675 42.91 81.5973 42.8376 81.4142C42.761 81.2355 42.7057 81.0482 42.6674 80.8567C42.4716 79.8905 42.7865 78.8605 43.4803 78.171C43.6165 78.0305 43.7697 77.9071 43.9315 77.8007C44.0932 77.69 44.2677 77.6006 44.4465 77.524C44.6252 77.4517 44.8125 77.3921 45.0041 77.3538C45.1956 77.3155 45.3914 77.2984 45.5872 77.2984C46.3703 77.2984 47.1364 77.6134 47.694 78.171C48.2473 78.7243 48.5665 79.4904 48.5665 80.2778Z" fill="white"/>
</g>
<g id="Group_16">
<path id="Vector_11" d="M162.992 175.784C162.992 178.789 161.847 181.794 159.561 184.084L149.393 194.252C144.818 198.827 137.373 198.827 132.798 194.252L124.081 185.535C122.919 184.373 122.919 182.483 124.081 181.321L146.631 158.772C147.793 157.61 149.683 157.61 150.845 158.772L159.561 167.489C161.847 169.774 162.992 172.779 162.992 175.784ZM155.343 179.87C157.595 177.619 157.595 173.954 155.343 171.702L148.733 165.092L130.397 183.428L137.007 190.038C139.259 192.29 142.924 192.29 145.175 190.038L155.343 179.87Z" fill="white"/>
</g>
<g id="Group_17">
<path id="Vector_12" d="M49.6774 61.8609C49.6774 64.7211 48.5665 67.543 46.4299 69.6797C44.2677 71.8418 41.2798 73.0208 38.2238 72.9144C38.326 75.9704 37.1513 78.954 34.9891 81.1205C31.367 84.7426 25.787 85.4151 21.4159 82.7592C21.1647 82.6059 20.9349 82.4484 20.7051 82.2867C19.9262 81.7291 19.3005 80.9843 18.8749 80.1245C18.8153 80.0053 18.76 79.8819 18.7131 79.7585C18.5727 79.4222 18.462 79.0732 18.3897 78.7072L6.33592 44.8359C5.9486 43.7548 6.221 42.5417 7.03821 41.7288C7.85541 40.9158 9.05993 40.6434 10.1453 41.0265L44.0294 53.0887C44.3784 53.1611 44.7189 53.2675 45.0424 53.3995C45.1871 53.4548 45.3275 53.5144 45.4595 53.5867C46.298 54.0038 47.03 54.6168 47.5748 55.3616C47.7493 55.6085 47.9068 55.8425 48.0686 56.1022C49.1497 57.8983 49.6774 59.886 49.6774 61.8609ZM32.2651 72.8421C32.2651 71.297 32.8865 69.7903 33.9889 68.6879C35.1508 67.5217 36.7554 66.8918 38.3941 66.9599C39.8412 67.0195 41.1947 66.4917 42.2205 65.466C43.8889 63.7975 44.2039 61.2267 42.9866 59.2135C42.9313 59.1284 42.8632 59.022 42.7908 58.9113C42.6078 58.8815 42.4248 58.839 42.2503 58.7751L14.0568 48.7388L24.093 76.9366C24.1569 77.1111 24.1995 77.2898 24.2292 77.4729C24.3271 77.541 24.4293 77.6091 24.5357 77.6729C26.5361 78.8902 29.1112 78.5795 30.7839 76.9068C31.8054 75.8853 32.3374 74.5233 32.2778 73.0847C32.2651 73.0038 32.2651 72.9229 32.2651 72.8421Z" fill="white"/>
</g>
<g id="Group_18">
<path id="Vector_13" d="M29.507 50.02C29.507 50.7819 29.2176 51.5437 28.6345 52.1268L17.4362 63.3251C16.2743 64.487 14.3845 64.487 13.2225 63.3251C12.0606 62.1631 12.0606 60.2733 13.2225 59.1114L24.4208 47.9131C25.5827 46.7512 27.4725 46.7512 28.6345 47.9131C29.2176 48.4963 29.507 49.2581 29.507 50.02Z" fill="white"/>
</g>
</g>
</g>
</g>
</g>
</g>
</svg>
