<svg width="153" height="119" viewBox="0 0 153 119" fill="none" xmlns="http://www.w3.org/2000/svg">
<g id="4137143_building_construction_industry_icon 1">
<g id="Layer_2">
<g id="Group">
<g id="Group_2">
<g id="Group_3">
<path id="Vector" d="M36.1086 32.5805C35.6084 32.5805 35.1217 32.3777 34.7702 32.0262C34.4159 31.672 34.2131 31.1852 34.2131 30.6877C34.2131 30.5633 34.2267 30.4389 34.251 30.3173C34.2753 30.1956 34.3132 30.0766 34.3591 29.963C34.4078 29.8495 34.4646 29.7386 34.5349 29.6359C34.6025 29.5331 34.6809 29.4358 34.7702 29.3492C34.8567 29.2627 34.954 29.1816 35.0568 29.114C35.1595 29.0464 35.2704 28.9869 35.384 28.9382C35.4975 28.8923 35.6165 28.8571 35.7382 28.8328C35.9815 28.7814 36.233 28.7814 36.4764 28.8328C36.598 28.8571 36.717 28.8923 36.8306 28.9382C36.9442 28.9869 37.055 29.0464 37.1578 29.114C37.2605 29.1816 37.3579 29.2627 37.4444 29.3492C37.5336 29.4358 37.612 29.5331 37.6796 29.6359C37.7499 29.7386 37.8067 29.8495 37.8554 29.963C37.9014 30.0766 37.9392 30.1956 37.9636 30.3173C37.9879 30.4389 37.9987 30.5633 37.9987 30.6877C37.9987 31.1852 37.7986 31.672 37.4444 32.0262C37.3579 32.1127 37.2605 32.1911 37.1578 32.2614C37.055 32.329 36.9442 32.3885 36.8306 32.4345C36.717 32.4832 36.598 32.5183 36.4764 32.5426C36.3547 32.567 36.2303 32.5805 36.1086 32.5805Z" fill="white"/>
</g>
<g id="Group_4">
<path id="Vector_2" d="M122.079 136.243H64.6194C63.5729 136.243 62.7266 135.396 62.7266 134.35V49.8318H36.1059C35.0595 49.8318 34.2131 48.9855 34.2131 47.9391V39.2593C34.2131 38.2129 35.0595 37.3665 36.1059 37.3665C37.1524 37.3665 37.9987 38.2129 37.9987 39.2593V46.0463H64.6194C65.6658 46.0463 66.5121 46.8926 66.5121 47.9391V132.457H120.183V110.155C120.183 109.108 121.03 108.262 122.076 108.262C123.123 108.262 123.969 109.108 123.969 110.155V134.35C123.972 135.396 123.123 136.243 122.079 136.243Z" fill="white"/>
</g>
<g id="Group_5">
<path id="Vector_3" d="M122.079 106.088C121.954 106.088 121.83 106.075 121.708 106.05C121.586 106.026 121.467 105.991 121.354 105.942C121.24 105.896 121.129 105.837 121.027 105.769C120.924 105.699 120.827 105.62 120.74 105.534C120.651 105.447 120.572 105.35 120.505 105.244C120.435 105.142 120.378 105.034 120.329 104.92C120.283 104.804 120.245 104.685 120.221 104.566C120.197 104.444 120.186 104.32 120.186 104.195C120.186 104.071 120.197 103.947 120.221 103.825C120.245 103.703 120.283 103.584 120.329 103.471C120.378 103.357 120.435 103.246 120.505 103.143C120.572 103.041 120.651 102.943 120.74 102.857C120.827 102.768 120.924 102.689 121.027 102.622C121.129 102.554 121.24 102.494 121.354 102.446C121.467 102.4 121.586 102.362 121.708 102.338C121.951 102.289 122.203 102.289 122.446 102.338C122.568 102.362 122.687 102.4 122.801 102.446C122.914 102.494 123.025 102.554 123.128 102.622C123.23 102.689 123.328 102.768 123.414 102.857C123.504 102.943 123.582 103.041 123.65 103.143C123.72 103.246 123.777 103.357 123.825 103.471C123.871 103.584 123.909 103.703 123.934 103.825C123.958 103.947 123.969 104.071 123.969 104.195C123.969 104.32 123.958 104.444 123.934 104.566C123.909 104.685 123.871 104.804 123.825 104.92C123.777 105.034 123.72 105.142 123.65 105.244C123.582 105.35 123.504 105.447 123.414 105.534C123.328 105.62 123.23 105.699 123.128 105.769C123.025 105.837 122.914 105.896 122.801 105.942C122.687 105.991 122.568 106.026 122.446 106.05C122.325 106.075 122.2 106.088 122.079 106.088Z" fill="white"/>
</g>
<g id="Group_6">
<path id="Vector_4" d="M122.079 98.8387C121.032 98.8387 120.186 97.9924 120.186 96.9459V8.88554H37.9987V24.7795C37.9987 25.826 37.1524 26.6723 36.1059 26.6723C35.0595 26.6723 34.2131 25.826 34.2131 24.7795V6.99276C34.2131 5.94632 35.0595 5.09998 36.1059 5.09998H122.076C123.123 5.09998 123.969 5.94632 123.969 6.99276V96.9459C123.972 97.9924 123.123 98.8387 122.079 98.8387Z" fill="white"/>
</g>
<g id="Group_7">
<g id="Group_8">
<path id="Vector_5" d="M37.3578 72.602H29.3486C28.3022 72.602 27.4558 71.7557 27.4558 70.7092V62.7C27.4558 61.6536 28.3022 60.8073 29.3486 60.8073H37.3578C38.4042 60.8073 39.2506 61.6536 39.2506 62.7V70.7092C39.2506 71.7557 38.4042 72.602 37.3578 72.602ZM31.2414 68.8164H35.465V64.5928H31.2414V68.8164Z" fill="white"/>
</g>
<g id="Group_9">
<path id="Vector_6" d="M54.9635 72.6021H46.9543C45.9079 72.6021 45.0615 71.7557 45.0615 70.7093V62.7001C45.0615 61.6537 45.9079 60.8073 46.9543 60.8073H54.9635C56.0099 60.8073 56.8563 61.6537 56.8563 62.7001V70.7093C56.8563 71.7557 56.0072 72.6021 54.9635 72.6021ZM48.8471 68.8165H53.0707V64.5929H48.8471V68.8165Z" fill="white"/>
</g>
<g id="Group_10">
<path id="Vector_7" d="M37.3578 88.8962H29.3486C28.3022 88.8962 27.4558 88.0498 27.4558 87.0034V78.9942C27.4558 77.9478 28.3022 77.1014 29.3486 77.1014H37.3578C38.4042 77.1014 39.2506 77.9478 39.2506 78.9942V87.0034C39.2506 88.0471 38.4042 88.8962 37.3578 88.8962ZM31.2414 85.1106H35.465V80.887H31.2414V85.1106Z" fill="white"/>
</g>
<g id="Group_11">
<path id="Vector_8" d="M54.9635 88.8962H46.9543C45.9079 88.8962 45.0615 88.0498 45.0615 87.0034V78.9942C45.0615 77.9478 45.9079 77.1014 46.9543 77.1014H54.9635C56.0099 77.1014 56.8563 77.9478 56.8563 78.9942V87.0034C56.8563 88.0471 56.0072 88.8962 54.9635 88.8962ZM48.8471 85.1106H53.0707V80.887H48.8471V85.1106Z" fill="white"/>
</g>
<g id="Group_12">
<path id="Vector_9" d="M37.3578 105.188H29.3486C28.3022 105.188 27.4558 104.341 27.4558 103.295V95.2857C27.4558 94.2392 28.3022 93.3929 29.3486 93.3929H37.3578C38.4042 93.3929 39.2506 94.2392 39.2506 95.2857V103.295C39.2506 104.341 38.4042 105.188 37.3578 105.188ZM31.2414 101.402H35.465V97.1784H31.2414V101.402Z" fill="white"/>
</g>
<g id="Group_13">
<path id="Vector_10" d="M54.9635 105.188H46.9543C45.9079 105.188 45.0615 104.341 45.0615 103.295V95.2857C45.0615 94.2392 45.9079 93.3929 46.9543 93.3929H54.9635C56.0099 93.3929 56.8563 94.2392 56.8563 95.2857V103.295C56.8563 104.341 56.0072 105.188 54.9635 105.188ZM48.8471 101.402H53.0707V97.1784H48.8471V101.402Z" fill="white"/>
</g>
<g id="Group_14">
<path id="Vector_11" d="M37.3578 121.482H29.3486C28.3022 121.482 27.4558 120.635 27.4558 119.589V111.58C27.4558 110.533 28.3022 109.687 29.3486 109.687H37.3578C38.4042 109.687 39.2506 110.533 39.2506 111.58V119.589C39.2506 120.633 38.4042 121.482 37.3578 121.482ZM31.2414 117.696H35.465V113.473H31.2414V117.696Z" fill="white"/>
</g>
<g id="Group_15">
<path id="Vector_12" d="M54.9635 121.482H46.9543C45.9079 121.482 45.0615 120.635 45.0615 119.589V111.58C45.0615 110.533 45.9079 109.687 46.9543 109.687H54.9635C56.0099 109.687 56.8563 110.533 56.8563 111.58V119.589C56.8563 120.633 56.0072 121.482 54.9635 121.482ZM48.8471 117.696H53.0707V113.473H48.8471V117.696Z" fill="white"/>
</g>
</g>
<g id="Group_16">
<g id="Group_17">
<path id="Vector_13" d="M84.9748 90.1671H77.2414C76.195 90.1671 75.3486 89.3207 75.3486 88.2743V80.5409C75.3486 79.4945 76.195 78.6481 77.2414 78.6481H84.9748C86.0212 78.6481 86.8676 79.4945 86.8676 80.5409V88.2743C86.8676 89.3207 86.0185 90.1671 84.9748 90.1671ZM79.1342 86.3815H83.082V82.4337H79.1342V86.3815Z" fill="white"/>
</g>
<g id="Group_18">
<path id="Vector_14" d="M84.9748 107.932H77.2414C76.195 107.932 75.3486 107.086 75.3486 106.039V98.306C75.3486 97.2596 76.195 96.4132 77.2414 96.4132H84.9748C86.0212 96.4132 86.8676 97.2596 86.8676 98.306V106.039C86.8676 107.086 86.0185 107.932 84.9748 107.932ZM79.1342 104.147H83.082V100.199H79.1342V104.147Z" fill="white"/>
</g>
<g id="Group_19">
<path id="Vector_15" d="M84.9748 125.697H77.2414C76.195 125.697 75.3486 124.851 75.3486 123.805V116.071C75.3486 115.025 76.195 114.178 77.2414 114.178H84.9748C86.0212 114.178 86.8676 115.025 86.8676 116.071V123.805C86.8676 124.848 86.0185 125.697 84.9748 125.697ZM79.1342 121.912H83.082V117.964H79.1342V121.912Z" fill="white"/>
</g>
</g>
<g id="Group_20">
<path id="Vector_16" d="M55.1608 24.4848H47.176C46.1295 24.4848 45.2832 23.6384 45.2832 22.592V14.6071C45.2832 13.5607 46.1295 12.7144 47.176 12.7144H55.1608C56.2073 12.7144 57.0536 13.5607 57.0536 14.6071V22.592C57.0536 23.6384 56.2073 24.4848 55.1608 24.4848ZM49.0688 20.6992H53.268V16.4999H49.0688V20.6992Z" fill="white"/>
</g>
<g id="Group_21">
<path id="Vector_17" d="M74.1616 24.4848H66.1767C65.1303 24.4848 64.2839 23.6384 64.2839 22.592V14.6071C64.2839 13.5607 65.1303 12.7144 66.1767 12.7144H74.1616C75.208 12.7144 76.0543 13.5607 76.0543 14.6071V22.592C76.0543 23.6384 75.208 24.4848 74.1616 24.4848ZM68.0695 20.6992H72.2688V16.4999H68.0695V20.6992Z" fill="white"/>
</g>
<g id="Group_22">
<path id="Vector_18" d="M93.1599 24.4848H85.175C84.1286 24.4848 83.2822 23.6384 83.2822 22.592V14.6071C83.2822 13.5607 84.1286 12.7144 85.175 12.7144H93.1599C94.2063 12.7144 95.0526 13.5607 95.0526 14.6071V22.592C95.0526 23.6384 94.2063 24.4848 93.1599 24.4848ZM87.0678 20.6992H91.2671V16.4999H87.0678V20.6992Z" fill="white"/>
</g>
<g id="Group_23">
<path id="Vector_19" d="M113.413 24.4848H105.428C104.381 24.4848 103.535 23.6384 103.535 22.592V14.6071C103.535 13.5607 104.381 12.7144 105.428 12.7144H113.413C114.459 12.7144 115.305 13.5607 115.305 14.6071V22.592C115.305 23.6384 114.456 24.4848 113.413 24.4848ZM107.32 20.6992H111.52V16.4999H107.32V20.6992Z" fill="white"/>
</g>
<g id="Group_24">
<path id="Vector_20" d="M55.1608 41.1521H47.176C46.1295 41.1521 45.2832 40.3057 45.2832 39.2593V31.2744C45.2832 30.228 46.1295 29.3817 47.176 29.3817H55.1608C56.2073 29.3817 57.0536 30.228 57.0536 31.2744V39.2593C57.0536 40.3057 56.2073 41.1521 55.1608 41.1521ZM49.0688 37.3665H53.268V33.1672H49.0688V37.3665Z" fill="white"/>
</g>
<g id="Group_25">
<path id="Vector_21" d="M74.1616 41.1521H66.1767C65.1303 41.1521 64.2839 40.3057 64.2839 39.2593V31.2744C64.2839 30.228 65.1303 29.3817 66.1767 29.3817H74.1616C75.208 29.3817 76.0543 30.228 76.0543 31.2744V39.2593C76.0543 40.3057 75.208 41.1521 74.1616 41.1521ZM68.0695 37.3665H72.2688V33.1672H68.0695V37.3665Z" fill="white"/>
</g>
<g id="Group_26">
<path id="Vector_22" d="M93.1599 41.1521H85.175C84.1286 41.1521 83.2822 40.3057 83.2822 39.2593V31.2744C83.2822 30.228 84.1286 29.3817 85.175 29.3817H93.1599C94.2063 29.3817 95.0526 30.228 95.0526 31.2744V39.2593C95.0526 40.3057 94.2063 41.1521 93.1599 41.1521ZM87.0678 37.3665H91.2671V33.1672H87.0678V37.3665Z" fill="white"/>
</g>
<g id="Group_27">
<path id="Vector_23" d="M113.413 41.1521H105.428C104.381 41.1521 103.535 40.3057 103.535 39.2593V31.2744C103.535 30.228 104.381 29.3817 105.428 29.3817H113.413C114.459 29.3817 115.305 30.228 115.305 31.2744V39.2593C115.305 40.3057 114.456 41.1521 113.413 41.1521ZM107.32 37.3665H111.52V33.1672H107.32V37.3665Z" fill="white"/>
</g>
<g id="Group_28">
<path id="Vector_24" d="M74.1587 57.8194H71.2006C70.1542 57.8194 69.3078 56.973 69.3078 55.9266C69.3078 54.8802 70.1542 54.0338 71.2006 54.0338H72.266V49.8318H70.9924C69.946 49.8318 69.0996 48.9855 69.0996 47.939C69.0996 46.8926 69.946 46.0463 70.9924 46.0463H74.1587C75.2052 46.0463 76.0515 46.8926 76.0515 47.939V55.9266C76.0515 56.973 75.2052 57.8194 74.1587 57.8194Z" fill="white"/>
</g>
<g id="Group_29">
<path id="Vector_25" d="M93.1599 57.8194H85.175C84.1286 57.8194 83.2822 56.973 83.2822 55.9266V47.9417C83.2822 46.8953 84.1286 46.049 85.175 46.049H93.1599C94.2063 46.049 95.0526 46.8953 95.0526 47.9417V55.9266C95.0526 56.9703 94.2063 57.8194 93.1599 57.8194ZM87.0678 54.0338H91.2671V49.8345H87.0678V54.0338Z" fill="white"/>
</g>
<g id="Group_30">
<path id="Vector_26" d="M113.413 57.8194H105.428C104.381 57.8194 103.535 56.973 103.535 55.9266V47.9417C103.535 46.8953 104.381 46.049 105.428 46.049H113.413C114.459 46.049 115.305 46.8953 115.305 47.9417V55.9266C115.305 56.9703 114.456 57.8194 113.413 57.8194ZM107.32 54.0338H111.52V49.8345H107.32V54.0338Z" fill="white"/>
</g>
<g id="Group_31">
<path id="Vector_27" d="M113.413 74.484H105.428C104.381 74.484 103.535 73.6376 103.535 72.5912V64.6063C103.535 63.5599 104.381 62.7136 105.428 62.7136H113.413C114.459 62.7136 115.305 63.5599 115.305 64.6063V72.5912C115.305 73.6376 114.456 74.484 113.413 74.484ZM107.32 70.6984H111.52V66.4991H107.32V70.6984Z" fill="white"/>
</g>
<g id="Group_32">
<path id="Vector_28" d="M113.413 91.1513H105.428C104.381 91.1513 103.535 90.305 103.535 89.2585V81.2737C103.535 80.2273 104.381 79.3809 105.428 79.3809H113.413C114.459 79.3809 115.305 80.2273 115.305 81.2737V89.2585C115.305 90.305 114.456 91.1513 113.413 91.1513ZM107.32 87.3658H111.52V83.1665H107.32V87.3658Z" fill="white"/>
</g>
<g id="Group_33">
<path id="Vector_29" d="M113.413 107.819H105.428C104.381 107.819 103.535 106.972 103.535 105.926V97.9409C103.535 96.8945 104.381 96.0482 105.428 96.0482H113.413C114.459 96.0482 115.305 96.8945 115.305 97.9409V105.926C115.305 106.97 114.456 107.819 113.413 107.819ZM107.32 104.033H111.52V99.8337H107.32V104.033Z" fill="white"/>
</g>
<g id="Group_34">
<path id="Vector_30" d="M113.413 124.483H105.428C104.381 124.483 103.535 123.637 103.535 122.59V114.606C103.535 113.559 104.381 112.713 105.428 112.713H113.413C114.459 112.713 115.305 113.559 115.305 114.606V122.59C115.305 123.637 114.456 124.483 113.413 124.483ZM107.32 120.698H111.52V116.498H107.32V120.698Z" fill="white"/>
</g>
<g id="Group_35">
<path id="Vector_31" d="M97.5968 136.243H64.6191C63.5727 136.243 62.7263 135.396 62.7263 134.35V69.9954C62.7263 68.9489 63.5727 68.1026 64.6191 68.1026H97.5941C98.6405 68.1026 99.4869 68.9489 99.4869 69.9954C99.4869 71.0418 98.6405 71.8882 97.5941 71.8882H66.5119V132.457H95.7013V78.0289C95.7013 76.9825 96.5477 76.1361 97.5941 76.1361C98.6405 76.1361 99.4869 76.9825 99.4869 78.0289V134.35C99.4896 135.396 98.6405 136.243 97.5968 136.243Z" fill="white"/>
</g>
<g id="Group_36">
<path id="Vector_32" d="M64.6192 136.243H19.6899C18.6435 136.243 17.7971 135.396 17.7971 134.35V47.939C17.7971 46.8926 18.6435 46.0463 19.6899 46.0463H64.6192C65.6656 46.0463 66.512 46.8926 66.512 47.939V134.35C66.512 135.396 65.6656 136.243 64.6192 136.243ZM21.5827 132.457H62.7264V49.8318H21.5827V132.457Z" fill="white"/>
</g>
</g>
</g>
</g>
</g>
</svg>
