<svg width="370" height="254" viewBox="0 0 370 254" fill="none" xmlns="http://www.w3.org/2000/svg">
<g clip-path="url(#clip0_43_25)">
<path d="M279.218 150.741C278.99 150.609 278.771 150.449 278.563 150.268C278.366 150.093 278.181 149.898 278.015 149.681C277.852 149.471 277.713 149.242 277.593 149.004C277.468 148.762 277.374 148.504 277.305 148.248C277.236 147.991 277.194 147.723 277.174 147.454C277.158 147.188 277.167 146.915 277.204 146.652C277.235 146.385 277.301 146.119 277.385 145.869C277.471 145.614 277.58 145.365 277.715 145.132C278.255 144.197 279.167 143.497 280.209 143.218C280.465 143.149 280.733 143.108 281.008 143.09C281.274 143.074 281.542 143.08 281.805 143.117C282.076 143.151 282.338 143.214 282.588 143.298C283.103 143.473 283.575 143.746 283.98 144.101C284.177 144.276 284.367 144.474 284.528 144.689C284.692 144.899 284.835 145.131 284.955 145.369C285.072 145.613 285.17 145.866 285.238 146.122C285.523 147.167 285.368 148.303 284.828 149.238C284.693 149.472 284.538 149.694 284.36 149.896C284.185 150.093 283.982 150.281 283.773 150.444C283.558 150.605 283.326 150.749 283.087 150.868C282.849 150.988 282.591 151.083 282.335 151.152C282.078 151.22 281.807 151.267 281.541 151.283C281.274 151.298 281.002 151.29 280.738 151.253C280.472 151.221 280.21 151.158 279.955 151.072C279.7 150.986 279.452 150.876 279.218 150.741Z" fill="#222222"/>
<path d="M208.77 197.554C206.027 195.97 203.43 194.132 201.048 192.086C189.959 182.594 183.484 168.736 183.28 154.061C183.199 148.521 184.02 143.04 185.723 137.778C186.828 134.351 188.302 131.023 190.106 127.899C191.928 124.744 194.073 121.803 196.477 119.153C204.168 110.642 214.682 104.926 226.08 103.066C237.637 101.176 249.6 103.368 259.756 109.232C268.998 114.567 276.212 122.499 280.63 132.176C281.573 134.238 280.662 136.672 278.6 137.615C276.538 138.559 274.104 137.648 273.161 135.586C269.458 127.473 263.402 120.821 255.65 116.344C238.3 106.328 215.973 109.823 202.561 124.664C200.541 126.885 198.75 129.353 197.222 132C195.705 134.627 194.466 137.42 193.536 140.297C192.11 144.703 191.424 149.293 191.492 153.939C191.662 166.257 197.093 177.887 206.393 185.844C210.392 189.277 215.122 192.008 220.08 193.746C231.63 197.827 244.418 196.715 255.163 190.706C259.22 188.442 262.855 185.548 265.955 182.115C267.985 179.866 269.781 177.401 271.3 174.769C272.828 172.122 274.065 169.334 274.978 166.487C275.749 164.108 276.306 161.652 276.644 159.178C276.952 156.931 279.02 155.355 281.267 155.663C283.515 155.972 285.088 158.045 284.783 160.287C284.379 163.238 283.712 166.165 282.796 168.996C281.709 172.392 280.234 175.721 278.413 178.876C276.606 182.005 274.461 184.946 272.046 187.616C268.343 191.717 264.007 195.168 259.166 197.874C246.36 205.037 231.119 206.351 217.349 201.49C214.404 200.467 211.514 199.137 208.77 197.554Z" fill="#222222"/>
<path d="M220.239 177.689C218.324 176.583 216.553 175.263 214.976 173.77C208.731 167.868 205.499 159.221 206.347 150.654C206.731 146.669 207.955 142.871 209.976 139.37C211.994 135.875 214.671 132.916 217.933 130.586C218.488 130.188 219.071 129.8 219.663 129.444C228.428 124.107 239.404 123.974 248.295 129.107C257.185 134.24 262.559 143.812 262.318 154.084C262.306 154.762 262.264 155.469 262.191 156.158C261.8 160.132 260.584 163.928 258.566 167.424C256.545 170.924 253.865 173.875 250.603 176.205C243.603 181.22 234.507 182.743 226.265 180.287C224.184 179.668 222.155 178.795 220.239 177.689ZM244.183 136.217C237.893 132.586 230.129 132.682 223.915 136.464C223.497 136.718 223.095 136.98 222.711 137.259C220.401 138.913 218.512 141 217.084 143.474C215.652 145.953 214.79 148.632 214.518 151.449C213.92 157.519 216.2 163.624 220.622 167.803C222.855 169.919 225.67 171.544 228.604 172.411C234.439 174.155 240.875 173.074 245.821 169.529C245.821 169.529 245.824 169.524 245.829 169.527C248.133 167.883 250.025 165.791 251.453 163.317C252.881 160.843 253.747 158.159 254.024 155.345C254.071 154.864 254.102 154.388 254.112 153.913C254.271 146.621 250.468 139.845 244.183 136.217Z" fill="#222222"/>
<path d="M220.239 177.689C218.324 176.583 216.553 175.263 214.976 173.77C208.731 167.868 205.499 159.221 206.347 150.654C206.731 146.669 207.955 142.871 209.976 139.37C211.994 135.875 214.671 132.916 217.933 130.586C218.488 130.188 219.071 129.8 219.663 129.444C228.428 124.107 239.404 123.974 248.295 129.107C257.185 134.24 262.559 143.812 262.318 154.084C262.306 154.762 262.264 155.469 262.191 156.158C261.8 160.132 260.584 163.928 258.566 167.424C256.545 170.924 253.863 173.88 250.6 176.21C243.608 181.223 234.509 182.751 226.265 180.287C224.184 179.668 222.155 178.795 220.239 177.689ZM244.183 136.217C237.893 132.586 230.129 132.682 223.915 136.464C223.497 136.718 223.095 136.98 222.711 137.259C220.401 138.913 218.512 141 217.084 143.474C215.652 145.953 214.79 148.632 214.518 151.449C213.92 157.519 216.2 163.624 220.622 167.803C222.855 169.919 225.67 171.544 228.604 172.411C234.439 174.155 240.875 173.074 245.821 169.529C248.128 167.88 250.025 165.791 251.453 163.317C252.881 160.843 253.747 158.159 254.024 155.345C254.071 154.864 254.102 154.388 254.112 153.913C254.271 146.621 250.468 139.845 244.183 136.217Z" fill="#00428F"/>
<path d="M44.1057 276.439C43.5824 276.137 43.1164 275.712 42.7593 275.181C41.5839 273.439 41.9087 271.093 43.517 269.739L114.013 210.395C115.334 209.281 117.212 209.113 118.711 209.978L138.352 221.318C139.643 222.063 140.432 223.453 140.405 224.942C140.379 226.431 139.546 227.792 138.231 228.496L48.0914 276.505C46.804 277.198 45.2996 277.129 44.1057 276.439ZM117.101 218.539L78.5662 250.977L127.836 224.737L117.101 218.539Z" fill="#222222"/>
<path d="M156.894 216.375L132.32 202.187C131.162 201.518 130.4 200.327 130.283 198.993C130.166 197.658 130.704 196.35 131.728 195.492L184.743 150.868C185.956 149.848 187.649 149.613 189.094 150.278C190.534 150.94 191.471 152.368 191.494 153.96C191.664 166.278 197.093 177.9 206.397 185.86C208.12 187.335 208.324 189.926 206.849 191.648C205.373 193.37 202.791 193.573 201.061 192.1C192.044 184.381 186.073 173.78 184.047 162.199L141.499 198.01L159.032 208.132L182.28 195.753C184.284 194.688 186.772 195.447 187.832 197.448C188.897 199.451 188.141 201.934 186.137 203L160.879 216.454C159.628 217.107 158.119 217.082 156.894 216.375Z" fill="#222222"/>
<path d="M242.983 266.078L218.408 251.89C217.179 251.181 216.408 249.889 216.356 248.477L214.618 197.773C214.568 196.417 215.201 195.122 216.292 194.323C217.386 193.518 218.808 193.309 220.089 193.765C231.63 197.84 244.417 196.728 255.167 190.722C256.549 189.948 258.257 190.04 259.555 190.959C260.846 191.88 261.497 193.462 261.22 195.022L249.082 263.246C248.848 264.567 247.984 265.687 246.773 266.248C245.554 266.811 244.141 266.747 242.983 266.078ZM224.486 245.916L242.019 256.038L251.758 201.285C242.554 204.649 232.572 205.3 223.022 203.14L224.486 245.916Z" fill="#222222"/>
<path d="M105.934 199.526L94.6403 193.005C92.6741 191.87 92.002 189.362 93.1372 187.396C94.2723 185.43 96.7806 184.758 98.7468 185.893L110.041 192.413C112.007 193.548 112.679 196.057 111.544 198.023C110.409 199.989 107.895 200.658 105.934 199.526Z" fill="#222222"/>
<path d="M193.364 250.003L171.051 237.121C169.085 235.986 168.412 233.477 169.548 231.511C170.683 229.545 173.191 228.873 175.157 230.008L197.471 242.891C199.437 244.026 200.109 246.534 198.974 248.5C197.838 250.467 195.325 251.136 193.364 250.003Z" fill="#222222"/>
<path d="M187.579 142.602L167.511 131.016C165.545 129.881 164.872 127.372 166.008 125.406L175.895 108.28C177.031 106.314 179.539 105.642 181.505 106.777L201.573 118.363C202.65 118.985 203.384 120.059 203.576 121.288C203.768 122.516 203.393 123.763 202.558 124.683C200.548 126.896 198.752 129.361 197.224 132.008C195.708 134.635 194.468 137.428 193.538 140.305C193.154 141.486 192.262 142.433 191.105 142.877C189.948 143.32 188.651 143.221 187.579 142.602ZM175.174 125.956L187.504 133.075C188.275 131.305 189.146 129.573 190.111 127.902C191.079 126.225 192.144 124.604 193.28 123.059L180.955 115.943L175.174 125.956Z" fill="#222222"/>
<path d="M287.024 200.016L266.956 188.43C265.879 187.808 265.144 186.734 264.95 185.511C264.755 184.287 265.129 183.04 265.96 182.118C267.987 179.874 269.786 177.404 271.302 174.777C272.831 172.13 274.068 169.342 274.98 166.495C275.358 165.312 276.251 164.364 277.411 163.916C278.57 163.468 279.868 163.567 280.945 164.188L301.013 175.775C302.979 176.91 303.651 179.418 302.516 181.384L292.628 198.51C291.498 200.48 288.985 201.149 287.024 200.016ZM275.243 183.732L287.574 190.851L293.355 180.837L281.03 173.721C280.265 175.481 279.388 177.21 278.42 178.887C277.455 180.558 276.391 182.179 275.243 183.732Z" fill="#222222"/>
<path d="M297.846 224.378L285.759 217.4C280.171 214.174 278.244 206.998 281.473 201.405L299.448 170.272C302.675 164.683 309.85 162.756 315.443 165.986L327.53 172.964C333.118 176.19 335.045 183.366 331.816 188.959L313.841 220.092C310.612 225.686 303.434 227.605 297.846 224.378ZM311.334 173.104C309.668 172.141 307.523 172.712 306.558 174.383L288.583 205.516C287.618 207.188 288.191 209.327 289.863 210.293L301.949 217.271C303.621 218.236 305.76 217.662 306.725 215.991L324.7 184.858C325.665 183.186 325.092 181.047 323.42 180.082L311.334 173.104Z" fill="#00428F"/>
<path d="M153.083 140.799L140.997 133.821C135.408 130.595 133.481 123.42 136.711 117.826L138.843 114.133C139.978 112.166 142.487 111.494 144.453 112.629C146.419 113.765 147.091 116.273 145.956 118.239L143.823 121.932C142.858 123.604 143.432 125.744 145.103 126.709L157.19 133.687C158.861 134.652 161.001 134.078 161.966 132.407L179.94 101.274C180.905 99.6024 180.332 97.4628 178.661 96.4977L166.574 89.5196C164.903 88.5546 162.763 89.1279 161.798 90.7994L157.979 97.4142C156.844 99.3803 154.336 100.052 152.369 98.9173C150.403 97.7821 149.731 95.2738 150.866 93.3077L154.685 86.6929C157.912 81.1044 165.087 79.1775 170.681 82.407L182.767 89.3851C188.356 92.6116 190.282 99.7868 187.053 105.38L169.078 136.513C165.849 142.107 158.672 144.026 153.083 140.799Z" fill="#00428F"/>
<path d="M146.189 109.622C145.96 109.49 145.738 109.335 145.536 109.157C145.334 108.979 145.152 108.779 144.988 108.569C144.822 108.352 144.681 108.128 144.564 107.884C144.439 107.643 144.346 107.393 144.275 107.128C144.207 106.872 144.165 106.604 144.144 106.335C144.129 106.068 144.142 105.798 144.174 105.532C144.211 105.269 144.269 105.004 144.355 104.749C144.441 104.494 144.551 104.246 144.686 104.012C144.818 103.784 144.978 103.565 145.156 103.362C145.334 103.16 145.534 102.978 145.743 102.814C145.961 102.648 146.185 102.507 146.424 102.387C146.67 102.265 146.92 102.173 147.179 102.099C147.441 102.033 147.704 101.988 147.978 101.971C148.245 101.955 148.509 101.966 148.781 102C149.044 102.037 149.308 102.095 149.564 102.181C150.852 102.614 151.861 103.704 152.209 105.003C152.49 106.052 152.343 107.187 151.804 108.122C151.261 109.062 150.352 109.756 149.305 110.032C148.26 110.316 147.129 110.164 146.189 109.622Z" fill="#00428F"/>
<path d="M245.115 110.269C243.149 109.134 242.477 106.625 243.612 104.659L251.326 91.2977C252.461 89.3316 254.97 88.6595 256.936 89.7946C258.902 90.9298 259.574 93.4381 258.439 95.4042L250.724 108.766C249.589 110.732 247.081 111.404 245.115 110.269Z" fill="#222222"/>
<path d="M266.183 122.433C264.217 121.298 263.545 118.789 264.68 116.823L272.395 103.462C273.53 101.496 276.038 100.823 278.004 101.959C279.97 103.094 280.643 105.602 279.507 107.568L271.793 120.93C270.658 122.896 268.15 123.568 266.183 122.433Z" fill="#222222"/>
<path d="M165.61 246.545L100.493 208.95C98.527 207.815 97.8549 205.307 98.9901 203.341L109.875 184.487C111.01 182.521 113.519 181.849 115.485 182.984L180.601 220.579C182.567 221.714 183.239 224.222 182.104 226.188L171.219 245.042C170.084 247.008 167.571 247.677 165.61 246.545ZM108.156 203.891L166.16 237.379L172.938 225.638L114.935 192.15L108.156 203.891Z" fill="#00428F"/>
<path d="M253.039 297.023L187.923 259.428C185.957 258.293 185.285 255.784 186.42 253.818L197.305 234.965C198.44 232.998 200.948 232.326 202.914 233.462L268.031 271.056C269.997 272.192 270.669 274.7 269.534 276.666L258.649 295.52C257.514 297.486 255 298.155 253.039 297.023ZM195.586 254.368L253.589 287.857L260.368 276.116L202.364 242.627L195.586 254.368Z" fill="#00428F"/>
<path d="M289.398 118.021L237.324 87.9552C231.43 84.5526 229.403 76.9877 232.806 71.0944C236.208 65.201 243.773 63.174 249.667 66.5766L301.741 96.6419C307.635 100.044 309.662 107.609 306.259 113.503C302.857 119.396 295.292 121.423 289.398 118.021ZM245.562 73.6972C243.591 72.5591 241.059 73.2377 239.921 75.2089C238.783 77.1801 239.461 79.7124 241.432 80.8505L293.507 110.916C295.478 112.054 298.011 111.375 299.149 109.404C300.287 107.433 299.608 104.901 297.637 103.763L245.562 73.6972Z" fill="#00428F"/>
</g>
<defs>
<clipPath id="clip0_43_25">
<rect width="300.361" height="300.361" fill="white" transform="translate(150.18) rotate(30)"/>
</clipPath>
</defs>
</svg>
