<svg width="276" height="228" viewBox="0 0 276 228" fill="none" xmlns="http://www.w3.org/2000/svg">
<g clip-path="url(#clip0_43_121)">
<path d="M85.8974 159.856C84.1188 160.954 83.5679 163.28 84.6652 165.058C91.4363 176.033 88.0178 190.464 77.0432 197.235C66.0686 204.006 51.6372 200.588 44.8662 189.613C43.7688 187.835 41.4429 187.284 39.6643 188.381C37.8858 189.478 37.3348 191.804 38.4321 193.583L119.152 324.414C128.112 338.937 147.21 343.461 161.733 334.5C176.255 325.54 180.779 306.442 171.819 291.92L91.0992 161.089C90.0019 159.31 87.6759 158.759 85.8974 159.856ZM81.0129 203.669C88.9497 198.772 93.9046 190.842 95.2953 182.288L165.385 295.889C172.156 306.864 168.738 321.295 157.763 328.066C146.788 334.838 132.357 331.419 125.586 320.444L55.4963 206.843C63.7658 209.437 73.076 208.566 81.0129 203.669Z" fill="black"/>
<path d="M241.861 31.7143C240.082 32.8116 239.531 35.1376 240.629 36.9161L333.626 187.647L169.834 288.703L91.0991 161.088C90.0018 159.31 87.6758 158.759 85.8973 159.856C84.1187 160.954 83.5678 163.28 84.6651 165.058C91.4362 176.033 88.0177 190.464 77.0431 197.235C66.0685 204.006 51.6371 200.588 44.866 189.613C38.095 178.639 41.5134 164.207 52.488 157.436L227.434 49.4987C229.212 48.4014 229.763 46.0754 228.666 44.2968C227.569 42.5183 225.243 41.9673 223.464 43.0647L48.5184 151.002C34.0005 159.959 29.472 179.06 38.432 193.583C47.3921 208.105 66.4948 212.626 81.0127 203.669C88.9496 198.772 93.9045 190.842 95.2952 182.287L165.385 295.889C166.482 297.668 168.808 298.219 170.587 297.122L340.813 192.096C342.591 190.999 343.142 188.673 342.045 186.894L247.063 32.9465C245.965 31.168 243.639 30.617 241.861 31.7143Z" fill="black"/>
<path d="M182.81 207.715L151.362 227.118C149.583 228.215 149.032 230.541 150.13 232.32L169.533 263.768C170.63 265.547 172.956 266.098 174.735 265.001L206.183 245.597C207.962 244.5 208.513 242.174 207.415 240.396L188.012 208.947C186.915 207.169 184.584 206.62 182.81 207.715ZM158.549 231.567L183.563 216.134L198.997 241.148L173.982 256.582L158.549 231.567Z" fill="black"/>
<path d="M161.814 112.77L137.994 127.466C136.216 128.564 135.665 130.889 136.762 132.668C137.859 134.447 140.185 134.998 141.964 133.9L162.567 121.189L194.794 173.424L142.559 205.652L110.332 153.417L114.624 150.768C116.402 149.671 116.953 147.345 115.856 145.567C114.759 143.788 112.433 143.237 110.654 144.334L103.145 148.967C101.366 150.065 100.815 152.391 101.913 154.169L138.11 212.838C139.207 214.617 141.533 215.168 143.312 214.071L201.981 177.873C203.76 176.776 204.311 174.45 203.213 172.671L167.016 114.002C165.921 112.228 163.593 111.673 161.814 112.77Z" fill="#00428F"/>
<path d="M122.801 136.84C121.951 137.365 121.336 138.22 121.107 139.186C121.054 139.428 121.015 139.674 121.011 139.924C121.004 140.17 121.016 140.416 121.055 140.665C121.096 140.906 121.161 141.145 121.247 141.377C121.329 141.612 121.441 141.835 121.569 142.042C121.699 142.253 121.848 142.453 122.021 142.632C122.19 142.813 122.375 142.979 122.572 143.123C122.774 143.265 122.991 143.391 123.214 143.495C123.437 143.599 123.677 143.679 123.914 143.736C124.883 143.969 125.92 143.799 126.77 143.274C127.616 142.752 128.234 141.902 128.464 140.929C128.52 140.691 128.552 140.443 128.563 140.195C128.571 139.949 128.555 139.698 128.514 139.457C128.478 139.213 128.413 138.974 128.327 138.742C128.241 138.509 128.133 138.284 128.003 138.072C127.875 137.866 127.722 137.668 127.553 137.487C127.384 137.306 127.199 137.14 126.997 136.998C126.797 136.849 126.583 136.728 126.36 136.624C126.13 136.518 125.898 136.44 125.657 136.379C124.686 136.153 123.646 136.318 122.801 136.84Z" fill="#00428F"/>
<path d="M279.027 148.352L196 199.577C194.222 200.674 193.671 203 194.768 204.779L214.171 236.228C215.269 238.006 217.594 238.557 219.373 237.46L259.999 212.394C261.778 211.297 262.329 208.971 261.231 207.192C260.134 205.414 257.808 204.863 256.03 205.96L218.62 229.041L203.187 204.026L279.779 156.771L295.213 181.785L280.359 190.949C278.581 192.047 278.03 194.373 279.127 196.151C280.225 197.93 282.551 198.481 284.329 197.383L302.399 186.234C304.178 185.137 304.729 182.811 303.632 181.033L284.229 149.584C283.131 147.805 280.805 147.254 279.027 148.352Z" fill="#00428F"/>
<path d="M267.452 198.907C267.24 199.037 267.043 199.19 266.862 199.359C266.68 199.528 266.515 199.713 266.373 199.915C266.228 200.112 266.102 200.329 265.999 200.552C265.898 200.779 265.814 201.015 265.758 201.252C265.7 201.498 265.666 201.741 265.662 201.991C265.65 202.239 265.667 202.482 265.703 202.727C265.747 202.972 265.807 203.214 265.891 203.442C265.98 203.679 266.087 203.904 266.215 204.111C266.345 204.323 266.499 204.52 266.668 204.701C266.837 204.883 267.026 205.045 267.223 205.19C267.425 205.332 267.638 205.461 267.865 205.562C268.087 205.665 268.323 205.749 268.565 205.802C268.803 205.858 269.053 205.894 269.299 205.901C269.545 205.909 269.795 205.893 270.039 205.857C270.281 205.816 270.52 205.751 270.752 205.665C271.22 205.497 271.647 205.233 272.007 204.891C272.188 204.722 272.353 204.537 272.498 204.34C272.64 204.138 272.766 203.921 272.87 203.698C272.974 203.476 273.054 203.236 273.11 202.998C273.171 202.757 273.202 202.51 273.214 202.261C273.221 202.016 273.202 201.768 273.165 201.524C273.124 201.282 273.064 201.04 272.978 200.808C272.891 200.576 272.779 200.353 272.649 200.142C272.521 199.935 272.373 199.735 272.201 199.549C272.035 199.372 271.846 199.21 271.645 199.06C271.444 198.918 271.234 198.794 271.011 198.69C270.781 198.585 270.548 198.506 270.303 198.448C270.065 198.392 269.818 198.361 269.569 198.349C269.324 198.342 269.073 198.357 268.832 198.398C268.588 198.434 268.349 198.499 268.116 198.585C267.884 198.672 267.659 198.779 267.452 198.907Z" fill="#00428F"/>
<path d="M198.422 88.0832L180.821 98.943C179.042 100.04 178.491 102.366 179.589 104.145L216.725 164.335C217.822 166.114 220.148 166.665 221.926 165.567L239.528 154.707C241.307 153.61 241.858 151.284 240.76 149.506L203.621 89.3108C202.527 87.5368 200.201 86.9859 198.422 88.0832ZM188.012 103.389L199.18 96.4992L232.346 150.255L221.178 157.146L188.012 103.389Z" fill="black"/>
<path d="M229.871 68.6801L212.27 79.5399C210.491 80.6372 209.94 82.9632 211.037 84.7418L248.173 144.932C249.271 146.711 251.597 147.262 253.375 146.164L270.977 135.304C272.755 134.207 273.306 131.881 272.209 130.103L235.07 69.9077C233.976 68.1338 231.65 67.5828 229.871 68.6801ZM219.456 83.9891L230.624 77.0989L263.79 130.855L252.623 137.745L219.456 83.9891Z" fill="black"/>
<path d="M87.0591 216.544C85.2806 217.641 84.7296 219.967 85.827 221.746L138.722 307.479C139.82 309.258 142.146 309.809 143.924 308.711C145.703 307.614 146.254 305.288 145.156 303.51L92.261 217.776C91.1637 215.998 88.8331 215.45 87.0591 216.544Z" fill="black"/>
</g>
<defs>
<clipPath id="clip0_43_121">
<rect width="276.483" height="276.483" fill="white" transform="matrix(0.851053 -0.52508 -0.52508 -0.851053 145.176 380.477)"/>
</clipPath>
</defs>
</svg>
