<?xml version="1.0" encoding="UTF-8"?>
<!DOCTYPE svg PUBLIC "-//W3C//DTD SVG 1.1//EN" "http://www.w3.org/Graphics/SVG/1.1/DTD/svg11.dtd">
<!-- Creator: CorelDRAW -->
<svg xmlns="http://www.w3.org/2000/svg" xml:space="preserve" width="7.4084mm" height="5.2918mm" version="1.1" style="shape-rendering:geometricPrecision; text-rendering:geometricPrecision; image-rendering:optimizeQuality; fill-rule:evenodd; clip-rule:evenodd"
viewBox="0 0 38.74 27.67"
 xmlns:xlink="http://www.w3.org/1999/xlink"
 xmlns:xodm="http://www.corel.com/coreldraw/odm/2003">
 <defs>
  <style type="text/css">
   <![CDATA[
    .fil0 {fill:#FEFEFE;fill-rule:nonzero}
   ]]>
  </style>
 </defs>
 <g id="Слой_x0020_1">
  <metadata id="CorelCorpID_0Corel-Layer"/>
  <path class="fil0" d="M2.77 5.53l33.2 0c1.53,0 2.77,-1.24 2.77,-2.77 0,-1.53 -1.24,-2.77 -2.77,-2.77l-33.2 0c-1.53,0 -2.77,1.24 -2.77,2.77 0,1.53 1.24,2.77 2.77,2.77zm33.2 5.53l-33.2 0c-1.53,0 -2.77,1.24 -2.77,2.77 0,1.53 1.24,2.77 2.77,2.77l33.2 0c1.53,0 2.77,-1.24 2.77,-2.77 0,-1.53 -1.24,-2.77 -2.77,-2.77zm0 11.07l-33.2 0c-1.53,0 -2.77,1.24 -2.77,2.77 0,1.53 1.24,2.77 2.77,2.77l33.2 -0c1.53,0 2.77,-1.24 2.77,-2.77 0,-1.53 -1.24,-2.77 -2.77,-2.77z"/>
 </g>
</svg>
