<svg width="266" height="52" viewBox="0 0 266 52" fill="none" xmlns="http://www.w3.org/2000/svg">
<path fill-rule="evenodd" clip-rule="evenodd" d="M45.0479 33.684L35.8585 29.336L35.9064 35.0254L45.0479 39.3485V33.684Z" fill="#00428F"/>
<path fill-rule="evenodd" clip-rule="evenodd" d="M45.0479 25.5405L35.8585 21.1904L35.9064 26.8878L45.0479 31.2108V25.5405Z" fill="#00428F"/>
<path fill-rule="evenodd" clip-rule="evenodd" d="M45.0479 17.592L35.8585 13.2146L35.9064 18.9038L45.0479 23.227V17.592Z" fill="#00428F"/>
<path fill-rule="evenodd" clip-rule="evenodd" d="M44.1223 40.9475L34.9601 36.5942L29.788 39.1799L38.8977 43.5584L44.1223 40.9475Z" fill="#00428F"/>
<path fill-rule="evenodd" clip-rule="evenodd" d="M31.5869 15.4447C27.3596 15.6714 24.838 17.437 24.0218 20.7414C28.1982 20.7029 30.7199 18.9373 31.5869 15.4447Z" fill="#00428F"/>
<path fill-rule="evenodd" clip-rule="evenodd" d="M31.2148 15.4314C31.1575 15.563 31.299 15.6614 31.5395 15.7798C31.6874 15.3393 31.8238 15.3133 33.0365 14.3178C31.7668 15.2678 31.7226 15.3901 31.2148 15.4314Z" fill="#00428F"/>
<path fill-rule="evenodd" clip-rule="evenodd" d="M31.5869 21.9311C27.3596 22.1578 24.838 23.9234 24.0218 27.2277C28.1982 27.1892 30.7199 25.4236 31.5869 21.9311Z" fill="#00428F"/>
<path fill-rule="evenodd" clip-rule="evenodd" d="M31.2148 21.9177C31.1575 22.0494 31.299 22.1478 31.5395 22.2662C31.6874 21.8256 31.8238 21.7996 33.0365 20.8042C31.7668 21.7541 31.7226 21.8765 31.2148 21.9177Z" fill="#00428F"/>
<path fill-rule="evenodd" clip-rule="evenodd" d="M31.5869 27.3244C27.3596 27.5512 24.838 29.3168 24.0218 32.6211C28.1982 32.5826 30.7199 30.817 31.5869 27.3244Z" fill="#00428F"/>
<path fill-rule="evenodd" clip-rule="evenodd" d="M31.2148 27.3111C31.1575 27.4427 31.299 27.5411 31.5395 27.6595C31.6874 27.219 31.8238 27.193 33.0365 26.1975C31.7668 27.1475 31.7226 27.2699 31.2148 27.3111Z" fill="#00428F"/>
<path fill-rule="evenodd" clip-rule="evenodd" d="M31.5869 32.7458C27.3596 32.9725 24.838 34.7381 24.0218 38.0425C28.1982 38.0039 30.7199 36.2383 31.5869 32.7458Z" fill="#00428F"/>
<path fill-rule="evenodd" clip-rule="evenodd" d="M31.2148 32.7325C31.1575 32.8641 31.299 32.9625 31.5395 33.0809C31.6874 32.6404 31.8238 32.6144 33.0365 31.6189C31.7668 32.5688 31.7226 32.6912 31.2148 32.7325Z" fill="#00428F"/>
<path fill-rule="evenodd" clip-rule="evenodd" d="M14.1317 15.4447C18.359 15.6714 20.8806 17.437 21.6968 20.7414C17.5204 20.7029 14.9987 18.9373 14.1317 15.4447Z" fill="#00428F"/>
<path fill-rule="evenodd" clip-rule="evenodd" d="M14.5037 15.4314C14.5611 15.563 14.4196 15.6614 14.1791 15.7798C14.0312 15.3393 13.8948 15.3133 12.6821 14.3178C13.9518 15.2678 13.996 15.3901 14.5037 15.4314Z" fill="#00428F"/>
<path fill-rule="evenodd" clip-rule="evenodd" d="M14.1317 21.9311C18.359 22.1578 20.8806 23.9234 21.6968 27.2277C17.5204 27.1892 14.9987 25.4236 14.1317 21.9311Z" fill="#00428F"/>
<path fill-rule="evenodd" clip-rule="evenodd" d="M14.5037 21.9177C14.5611 22.0494 14.4196 22.1478 14.1791 22.2662C14.0312 21.8256 13.8948 21.7996 12.6821 20.8042C13.9518 21.7541 13.996 21.8765 14.5037 21.9177Z" fill="#00428F"/>
<path fill-rule="evenodd" clip-rule="evenodd" d="M14.1317 27.3244C18.359 27.5512 20.8806 29.3168 21.6968 32.6211C17.5204 32.5826 14.9987 30.817 14.1317 27.3244Z" fill="#00428F"/>
<path fill-rule="evenodd" clip-rule="evenodd" d="M14.5037 27.3111C14.5611 27.4427 14.4196 27.5411 14.1791 27.6595C14.0312 27.219 13.8948 27.193 12.6821 26.1975C13.9518 27.1475 13.996 27.2699 14.5037 27.3111Z" fill="#00428F"/>
<path fill-rule="evenodd" clip-rule="evenodd" d="M14.1317 32.7458C18.359 32.9725 20.8806 34.7381 21.6968 38.0425C17.5204 38.0039 14.9987 36.2383 14.1317 32.7458Z" fill="#00428F"/>
<path fill-rule="evenodd" clip-rule="evenodd" d="M14.5037 32.7325C14.5611 32.8641 14.4196 32.9625 14.1791 33.0809C14.0312 32.6404 13.8948 32.6144 12.6821 31.6189C13.9518 32.5688 13.996 32.6912 14.5037 32.7325Z" fill="#00428F"/>
<path fill-rule="evenodd" clip-rule="evenodd" d="M23.0069 9.1649L22.7232 9.17105L22.8442 0.243286L23.0069 9.1649Z" fill="#00428F"/>
<path fill-rule="evenodd" clip-rule="evenodd" d="M27.3844 16.0336L27.1008 16.0398L27.2218 7.11196L27.3844 16.0336Z" fill="#00428F"/>
<path fill-rule="evenodd" clip-rule="evenodd" d="M18.3801 15.8343L18.0965 15.8404L18.2175 6.91266L18.3801 15.8343Z" fill="#00428F"/>
<path fill-rule="evenodd" clip-rule="evenodd" d="M22.8792 9.10171C20.2028 11.6028 20.1676 14.2107 22.7735 16.9254C25.5953 14.5814 25.6306 11.9735 22.8792 9.10171Z" fill="#00428F"/>
<path fill-rule="evenodd" clip-rule="evenodd" d="M22.6117 9.29903C22.6985 9.42099 22.8897 9.40979 23.1676 9.35742C22.847 8.97377 22.9155 8.88027 22.7922 7.52598C22.8329 8.88082 22.9198 8.98899 22.6117 9.29903Z" fill="#00428F"/>
<path fill-rule="evenodd" clip-rule="evenodd" d="M22.2982 51.8514L15.0827 48.239L22.2982 44.6266L29.5137 48.239L22.2982 51.8514Z" fill="#00428F"/>
<path fill-rule="evenodd" clip-rule="evenodd" d="M36.9027 44.5555L27.7567 40.2077L22.5719 42.7896L31.5633 47.2238L36.9027 44.5555Z" fill="#00428F"/>
<path fill-rule="evenodd" clip-rule="evenodd" d="M0 17.592L9.18943 13.2146L9.14153 18.9038L0 23.227V17.592Z" fill="#00428F"/>
<path fill-rule="evenodd" clip-rule="evenodd" d="M0 33.684L9.18943 29.336L9.14153 35.0254L0 39.3485V33.684Z" fill="#00428F"/>
<path fill-rule="evenodd" clip-rule="evenodd" d="M0 25.5405L9.18943 21.1904L9.14153 26.8878L0 31.2108V25.5405Z" fill="#00428F"/>
<path d="M55.3294 14.8394V13.6433H64.5519V14.8394H60.6852V24.7784H59.1961V14.8394H55.3294Z" fill="#00428F"/>
<path d="M68.1169 24.9741C67.5325 24.9741 67.0021 24.8744 66.5258 24.6751C66.0494 24.4721 65.6712 24.1803 65.391 23.7997C65.1108 23.4155 64.9707 22.9515 64.9707 22.4078C64.9707 21.9293 65.0747 21.5415 65.2829 21.2443C65.491 20.9434 65.7692 20.7078 66.1175 20.5375C66.4657 20.3671 66.85 20.2402 67.2703 20.1569C67.6946 20.0699 68.1209 20.001 68.5492 19.9503C69.1096 19.885 69.5639 19.8361 69.9121 19.8034C70.2644 19.7672 70.5206 19.7074 70.6807 19.624C70.8448 19.5407 70.9268 19.3957 70.9268 19.1891V19.1456C70.9268 18.6091 70.7647 18.1923 70.4405 17.895C70.1203 17.5978 69.6339 17.4492 68.9815 17.4492C68.305 17.4492 67.7746 17.5833 67.3904 17.8515C67.0061 18.1198 66.7359 18.4061 66.5798 18.7106L65.2349 18.2756C65.475 17.7682 65.7952 17.3731 66.1955 17.0904C66.5998 16.804 67.0401 16.6046 67.5165 16.4923C67.9968 16.3763 68.4691 16.3183 68.9335 16.3183C69.2297 16.3183 69.5699 16.3509 69.9542 16.4162C70.3424 16.4778 70.7167 16.6065 71.077 16.8022C71.4412 16.9979 71.7434 17.2933 71.9836 17.6884C72.2238 18.0835 72.3438 18.6127 72.3438 19.2761V24.7784H70.9268V23.6475H70.8548C70.7587 23.8287 70.5986 24.0226 70.3745 24.2292C70.1503 24.4358 69.8521 24.6116 69.4798 24.7566C69.1076 24.9016 68.6533 24.9741 68.1169 24.9741ZM68.333 23.8214C68.8934 23.8214 69.3658 23.7218 69.75 23.5224C70.1383 23.323 70.4305 23.0657 70.6266 22.7503C70.8268 22.435 70.9268 22.1033 70.9268 21.7554V20.5809C70.8668 20.6462 70.7347 20.706 70.5306 20.7604C70.3304 20.8111 70.0983 20.8564 69.8341 20.8963C69.5739 20.9325 69.3197 20.9652 69.0716 20.9942C68.8274 21.0195 68.6292 21.0413 68.4771 21.0594C68.1089 21.1029 67.7646 21.1736 67.4444 21.2715C67.1282 21.3657 66.872 21.5089 66.6759 21.701C66.4837 21.8895 66.3877 22.1468 66.3877 22.473C66.3877 22.9189 66.5698 23.256 66.9341 23.4843C67.3023 23.7091 67.7686 23.8214 68.333 23.8214Z" fill="#00428F"/>
<path d="M79.9737 23.0385L83.192 16.427H84.5369L80.5501 24.7784H79.3973L75.4826 16.427H76.8035L79.9737 23.0385ZM76.3472 16.427V24.7784H74.9302V16.427H76.3472ZM83.6003 24.7784V16.427H85.0173V24.7784H83.6003Z" fill="#00428F"/>
<path d="M94.4559 13.2953L95.1764 14.0782C94.8962 14.3247 94.572 14.4969 94.2037 14.5947C93.8355 14.6926 93.4192 14.7524 92.9548 14.7742C92.4905 14.7959 91.9742 14.8177 91.4058 14.8394C90.7653 14.8612 90.2349 15.0025 89.8146 15.2635C89.3943 15.5245 89.0701 15.9015 88.8419 16.3944C88.6138 16.8874 88.4677 17.4927 88.4036 18.2104H88.5237C88.8359 17.6884 89.2683 17.3042 89.8206 17.0577C90.373 16.8113 90.9654 16.688 91.5979 16.688C92.3184 16.688 92.9669 16.8403 93.5433 17.1447C94.1197 17.4492 94.576 17.9005 94.9122 18.4986C95.2485 19.0966 95.4166 19.8343 95.4166 20.7114C95.4166 21.585 95.2445 22.3389 94.9002 22.9733C94.56 23.6076 94.0816 24.0969 93.4652 24.4413C92.8528 24.782 92.1343 24.9523 91.3097 24.9523C90.4851 24.9523 89.7626 24.7765 89.1422 24.4249C88.5217 24.0697 88.0394 23.5441 87.6952 22.8482C87.3509 22.1486 87.1788 21.2841 87.1788 20.2547V19.363C87.1788 17.5036 87.527 16.0936 88.2235 15.133C88.924 14.1725 89.9767 13.6759 91.3817 13.6433C91.8781 13.6288 92.3204 13.6251 92.7087 13.6324C93.0969 13.6396 93.4352 13.6233 93.7234 13.5835C94.0116 13.5436 94.2558 13.4475 94.4559 13.2953ZM91.3097 23.7997C91.8661 23.7997 92.3444 23.6728 92.7447 23.4191C93.149 23.1654 93.4592 22.8083 93.6754 22.348C93.8915 21.884 93.9996 21.3385 93.9996 20.7114C93.9996 20.1025 93.8895 19.5842 93.6693 19.1564C93.4532 18.7287 93.143 18.4025 92.7387 18.1778C92.3344 17.953 91.8501 17.8407 91.2857 17.8407C90.8734 17.8407 90.5031 17.9041 90.1749 18.031C89.8467 18.1578 89.5665 18.3445 89.3343 18.591C89.1021 18.8375 88.922 19.1383 88.7939 19.4935C88.6698 19.8488 88.6038 20.2547 88.5958 20.7114C88.5958 21.6466 88.838 22.3951 89.3223 22.9569C89.8066 23.5188 90.4691 23.7997 91.3097 23.7997Z" fill="#00428F"/>
<path d="M101.331 24.9523C100.498 24.9523 99.7676 24.7729 99.1392 24.4141C98.5148 24.0552 98.0264 23.5532 97.6742 22.908C97.3259 22.2628 97.1518 21.5089 97.1518 20.6462C97.1518 19.7763 97.3259 19.0169 97.6742 18.3681C98.0264 17.7192 98.5148 17.2154 99.1392 16.8566C99.7676 16.4977 100.498 16.3183 101.331 16.3183C102.163 16.3183 102.892 16.4977 103.516 16.8566C104.145 17.2154 104.633 17.7192 104.981 18.3681C105.334 19.0169 105.51 19.7763 105.51 20.6462C105.51 21.5089 105.334 22.2628 104.981 22.908C104.633 23.5532 104.145 24.0552 103.516 24.4141C102.892 24.7729 102.163 24.9523 101.331 24.9523ZM101.331 23.7997C101.963 23.7997 102.484 23.6529 102.892 23.3593C103.3 23.0657 103.602 22.6797 103.798 22.2012C103.995 21.7227 104.093 21.2044 104.093 20.6462C104.093 20.088 103.995 19.5678 103.798 19.0858C103.602 18.6037 103.3 18.214 102.892 17.9168C102.484 17.6196 101.963 17.471 101.331 17.471C100.698 17.471 100.178 17.6196 99.7696 17.9168C99.3614 18.214 99.0591 18.6037 98.863 19.0858C98.6669 19.5678 98.5688 20.088 98.5688 20.6462C98.5688 21.2044 98.6669 21.7227 98.863 22.2012C99.0591 22.6797 99.3614 23.0657 99.7696 23.3593C100.178 23.6529 100.698 23.7997 101.331 23.7997Z" fill="#00428F"/>
<path d="M107.673 24.7784V16.427H111.443C112.436 16.427 113.225 16.63 113.809 17.036C114.393 17.442 114.686 17.9784 114.686 18.6454C114.686 19.1528 114.52 19.5461 114.187 19.8252C113.855 20.1007 113.429 20.2873 112.908 20.3852C113.249 20.4287 113.579 20.5375 113.899 20.7114C114.223 20.8854 114.491 21.1247 114.704 21.4291C114.916 21.73 115.022 22.0997 115.022 22.5383C115.022 22.966 114.902 23.3484 114.662 23.6855C114.421 24.0226 114.077 24.289 113.629 24.4848C113.181 24.6805 112.644 24.7784 112.02 24.7784H107.673ZM109.018 23.604H112.02C112.508 23.604 112.89 23.4988 113.167 23.2886C113.443 23.0784 113.581 22.792 113.581 22.4296C113.581 21.9982 113.443 21.6593 113.167 21.4128C112.89 21.1627 112.508 21.0377 112.02 21.0377H109.018V23.604ZM109.018 19.9285H111.443C111.824 19.9285 112.15 19.8814 112.422 19.7871C112.694 19.6893 112.902 19.5515 113.046 19.3739C113.195 19.1927 113.269 18.9788 113.269 18.7323C113.269 18.3808 113.107 18.1053 112.782 17.9059C112.458 17.7029 112.012 17.6014 111.443 17.6014H109.018V19.9285Z" fill="#00428F"/>
<path d="M120.914 24.9523C120.049 24.9523 119.304 24.7675 118.68 24.3978C118.055 24.028 117.575 23.5188 117.239 22.87C116.903 22.2211 116.735 21.4799 116.735 20.6462C116.735 19.798 116.907 19.0495 117.251 18.4007C117.599 17.7482 118.084 17.239 118.704 16.8729C119.328 16.5032 120.057 16.3183 120.889 16.3183C121.538 16.3183 122.122 16.427 122.643 16.6445C123.163 16.862 123.589 17.1665 123.922 17.5579C124.254 17.9494 124.46 18.4061 124.54 18.9281H123.123C123.015 18.5475 122.775 18.2104 122.403 17.9168C122.034 17.6196 121.538 17.471 120.914 17.471C120.361 17.471 119.877 17.6014 119.46 17.8624C119.048 18.1198 118.726 18.4841 118.494 18.9553C118.266 19.4229 118.152 19.972 118.152 20.6027C118.152 21.2479 118.264 21.8097 118.488 22.2882C118.716 22.7666 119.036 23.1382 119.448 23.4028C119.865 23.6674 120.353 23.7997 120.914 23.7997C121.282 23.7997 121.616 23.7417 121.916 23.6257C122.216 23.5097 122.471 23.343 122.679 23.1255C122.887 22.908 123.035 22.647 123.123 22.3426H124.54C124.46 22.8355 124.262 23.2795 123.946 23.6746C123.633 24.0661 123.219 24.3778 122.703 24.6098C122.19 24.8382 121.594 24.9523 120.914 24.9523Z" fill="#00428F"/>
<path d="M130.478 24.9523C129.59 24.9523 128.823 24.7747 128.179 24.4195C127.538 24.0607 127.044 23.5605 126.696 22.9189C126.351 22.2737 126.179 21.5234 126.179 20.6679C126.179 19.8125 126.351 19.0586 126.696 18.4061C127.044 17.7501 127.528 17.239 128.149 16.8729C128.773 16.5032 129.502 16.3183 130.334 16.3183C130.814 16.3183 131.289 16.3908 131.757 16.5358C132.225 16.6808 132.652 16.9164 133.036 17.2426C133.42 17.5652 133.727 17.9929 133.955 18.5257C134.183 19.0586 134.297 19.7146 134.297 20.494V21.0377H127.188V19.9285H132.856C132.856 19.4573 132.752 19.0368 132.544 18.6671C132.34 18.2974 132.047 18.0056 131.667 17.7917C131.291 17.5779 130.846 17.471 130.334 17.471C129.77 17.471 129.281 17.5978 128.869 17.8515C128.461 18.1017 128.147 18.4279 127.926 18.8302C127.706 19.2326 127.596 19.6639 127.596 20.1242V20.8637C127.596 21.4944 127.716 22.029 127.956 22.4676C128.201 22.9026 128.539 23.2342 128.971 23.4626C129.403 23.6873 129.906 23.7997 130.478 23.7997C130.85 23.7997 131.187 23.7526 131.487 23.6583C131.791 23.5605 132.053 23.4155 132.273 23.2234C132.494 23.0276 132.664 22.7848 132.784 22.4948L134.153 22.8428C134.009 23.2632 133.767 23.633 133.426 23.9519C133.086 24.2673 132.666 24.5138 132.165 24.6914C131.665 24.8654 131.103 24.9523 130.478 24.9523Z" fill="#00428F"/>
<path d="M135.636 24.7784V23.5822H135.972C136.248 23.5822 136.478 23.5333 136.663 23.4354C136.847 23.3339 136.995 23.1581 137.107 22.908C137.223 22.6543 137.311 22.3027 137.371 21.8532C137.435 21.4001 137.481 20.8238 137.509 20.1242L137.677 16.427H143.826V24.7784H142.409V17.6232H139.022L138.878 20.6027C138.846 21.2878 138.778 21.8913 138.674 22.4132C138.574 22.9316 138.42 23.3665 138.212 23.7181C138.008 24.0697 137.735 24.3343 137.395 24.5119C137.055 24.6896 136.629 24.7784 136.116 24.7784H135.636Z" fill="#00428F"/>
<path d="M147.65 19.45H150.292C151.373 19.45 152.199 19.6983 152.772 20.1949C153.344 20.6915 153.631 21.3204 153.631 22.0816C153.631 22.5818 153.502 23.0367 153.246 23.4463C152.99 23.8522 152.614 24.1767 152.117 24.4195C151.621 24.6587 151.013 24.7784 150.292 24.7784H146.425V16.427H147.842V23.5822H150.292C150.853 23.5822 151.313 23.4481 151.673 23.1799C152.033 22.9116 152.214 22.5673 152.214 22.1468C152.214 21.7046 152.033 21.344 151.673 21.0648C151.313 20.7857 150.853 20.6462 150.292 20.6462H147.65V19.45Z" fill="#00428F"/>
<path d="M156.464 16.427L158.674 19.8415L160.884 16.427H162.517L159.539 20.6027L162.517 24.7784H160.884L158.674 21.5379L156.464 24.7784H154.831L157.761 20.6027L154.831 16.427H156.464Z" fill="#00428F"/>
<path d="M167.906 24.9523C167.073 24.9523 166.342 24.7729 165.714 24.4141C165.09 24.0552 164.601 23.5532 164.249 22.908C163.901 22.2628 163.727 21.5089 163.727 20.6462C163.727 19.7763 163.901 19.0169 164.249 18.3681C164.601 17.7192 165.09 17.2154 165.714 16.8566C166.342 16.4977 167.073 16.3183 167.906 16.3183C168.738 16.3183 169.467 16.4977 170.091 16.8566C170.72 17.2154 171.208 17.7192 171.556 18.3681C171.908 19.0169 172.084 19.7763 172.084 20.6462C172.084 21.5089 171.908 22.2628 171.556 22.908C171.208 23.5532 170.72 24.0552 170.091 24.4141C169.467 24.7729 168.738 24.9523 167.906 24.9523ZM167.906 23.7997C168.538 23.7997 169.058 23.6529 169.467 23.3593C169.875 23.0657 170.177 22.6797 170.373 22.2012C170.569 21.7227 170.667 21.2044 170.667 20.6462C170.667 20.088 170.569 19.5678 170.373 19.0858C170.177 18.6037 169.875 18.214 169.467 17.9168C169.058 17.6196 168.538 17.471 167.906 17.471C167.273 17.471 166.753 17.6196 166.344 17.9168C165.936 18.214 165.634 18.6037 165.438 19.0858C165.242 19.5678 165.144 20.088 165.144 20.6462C165.144 21.2044 165.242 21.7227 165.438 22.2012C165.634 22.6797 165.936 23.0657 166.344 23.3593C166.753 23.6529 167.273 23.7997 167.906 23.7997Z" fill="#00428F"/>
<path d="M173.671 22.647H175.184C175.216 23.024 175.404 23.3104 175.749 23.5061C176.097 23.7018 176.549 23.7997 177.105 23.7997C177.674 23.7997 178.16 23.6946 178.565 23.4843C178.969 23.2705 179.171 22.9261 179.171 22.4513C179.171 22.1722 179.095 21.9293 178.943 21.7227C178.791 21.5125 178.577 21.3494 178.3 21.2334C178.024 21.1174 177.698 21.0594 177.322 21.0594H175.737V19.9068H177.322C177.886 19.9068 178.302 19.7908 178.571 19.5588C178.843 19.3268 178.979 19.0368 178.979 18.6889C178.979 18.3155 178.833 18.0165 178.541 17.7917C178.248 17.5634 177.834 17.4492 177.298 17.4492C176.757 17.4492 176.307 17.5598 175.947 17.7809C175.586 17.9983 175.396 18.2793 175.376 18.6236H173.887C173.903 18.1741 174.055 17.7772 174.344 17.4329C174.632 17.0849 175.024 16.8131 175.52 16.6173C176.017 16.418 176.585 16.3183 177.226 16.3183C177.874 16.3183 178.436 16.4216 178.913 16.6282C179.393 16.8312 179.763 17.1085 180.024 17.4601C180.288 17.8081 180.42 18.2031 180.42 18.6454C180.42 19.1166 180.274 19.4972 179.982 19.7871C179.689 20.0771 179.323 20.2837 178.883 20.407V20.494C179.231 20.5157 179.533 20.6172 179.789 20.7984C180.05 20.976 180.252 21.2098 180.396 21.4998C180.54 21.7862 180.612 22.1033 180.612 22.4513C180.612 22.9588 180.462 23.401 180.162 23.7779C179.861 24.1513 179.449 24.4413 178.925 24.6479C178.4 24.8509 177.802 24.9523 177.13 24.9523C176.477 24.9523 175.893 24.8563 175.376 24.6642C174.86 24.4684 174.45 24.1984 174.145 23.8541C173.845 23.5061 173.687 23.1037 173.671 22.647Z" fill="#00428F"/>
<path d="M182.074 17.6232V16.427H189.567V17.6232H186.541V24.7784H185.124V17.6232H182.074Z" fill="#00428F"/>
<path d="M195.022 24.9523C194.133 24.9523 193.367 24.7747 192.722 24.4195C192.082 24.0607 191.588 23.5605 191.239 22.9189C190.895 22.2737 190.723 21.5234 190.723 20.6679C190.723 19.8125 190.895 19.0586 191.239 18.4061C191.588 17.7501 192.072 17.239 192.692 16.8729C193.317 16.5032 194.045 16.3183 194.878 16.3183C195.358 16.3183 195.833 16.3908 196.301 16.5358C196.769 16.6808 197.196 16.9164 197.58 17.2426C197.964 17.5652 198.27 17.9929 198.499 18.5257C198.727 19.0586 198.841 19.7146 198.841 20.494V21.0377H191.732V19.9285H197.4C197.4 19.4573 197.296 19.0368 197.088 18.6671C196.883 18.2974 196.591 18.0056 196.211 17.7917C195.835 17.5779 195.39 17.471 194.878 17.471C194.314 17.471 193.825 17.5978 193.413 17.8515C193.005 18.1017 192.69 18.4279 192.47 18.8302C192.25 19.2326 192.14 19.6639 192.14 20.1242V20.8637C192.14 21.4944 192.26 22.029 192.5 22.4676C192.745 22.9026 193.083 23.2342 193.515 23.4626C193.947 23.6873 194.45 23.7997 195.022 23.7997C195.394 23.7997 195.731 23.7526 196.031 23.6583C196.335 23.5605 196.597 23.4155 196.817 23.2234C197.038 23.0276 197.208 22.7848 197.328 22.4948L198.697 22.8428C198.553 23.2632 198.31 23.633 197.97 23.9519C197.63 24.2673 197.21 24.5138 196.709 24.6914C196.209 24.8654 195.647 24.9523 195.022 24.9523Z" fill="#00428F"/>
<path d="M201.805 16.427L204.015 19.8415L206.224 16.427H207.858L204.88 20.6027L207.858 24.7784H206.224L204.015 21.5379L201.805 24.7784H200.172L203.102 20.6027L200.172 16.427H201.805Z" fill="#00428F"/>
<path d="M209.88 24.7784V16.427H217.133V24.7784H215.716V17.6232H211.297V24.7784H209.88Z" fill="#00428F"/>
<path d="M219.72 27.9101V16.427H221.089V17.7537H221.258C221.362 17.6087 221.506 17.4238 221.69 17.1991C221.878 16.9707 222.146 16.7678 222.494 16.5901C222.847 16.4089 223.323 16.3183 223.923 16.3183C224.7 16.3183 225.384 16.4941 225.977 16.8457C226.569 17.1973 227.032 17.6957 227.364 18.3409C227.696 18.9861 227.862 19.7473 227.862 20.6244C227.862 21.5089 227.696 22.2755 227.364 22.9243C227.032 23.5695 226.571 24.0697 225.983 24.4249C225.394 24.7765 224.716 24.9523 223.947 24.9523C223.355 24.9523 222.881 24.8635 222.524 24.6859C222.168 24.5047 221.894 24.2999 221.702 24.0715C221.51 23.8396 221.362 23.6475 221.258 23.4952H221.137V27.9101H219.72ZM221.113 20.6027C221.113 21.2334 221.216 21.7898 221.42 22.2719C221.624 22.7503 221.922 23.1255 222.314 23.3973C222.707 23.6656 223.187 23.7997 223.755 23.7997C224.348 23.7997 224.842 23.6583 225.238 23.3756C225.639 23.0892 225.939 22.705 226.139 22.2229C226.343 21.7372 226.445 21.1972 226.445 20.6027C226.445 20.0155 226.345 19.4863 226.145 19.0151C225.949 18.5402 225.651 18.1651 225.25 17.8896C224.854 17.6105 224.356 17.471 223.755 17.471C223.179 17.471 222.695 17.6033 222.302 17.8679C221.91 18.1288 221.614 18.4949 221.414 18.9661C221.214 19.4337 221.113 19.9792 221.113 20.6027Z" fill="#00428F"/>
<path d="M233.77 24.9523C232.938 24.9523 232.207 24.7729 231.579 24.4141C230.954 24.0552 230.466 23.5532 230.114 22.908C229.766 22.2628 229.591 21.5089 229.591 20.6462C229.591 19.7763 229.766 19.0169 230.114 18.3681C230.466 17.7192 230.954 17.2154 231.579 16.8566C232.207 16.4977 232.938 16.3183 233.77 16.3183C234.603 16.3183 235.331 16.4977 235.956 16.8566C236.584 17.2154 237.073 17.7192 237.421 18.3681C237.773 19.0169 237.949 19.7763 237.949 20.6462C237.949 21.5089 237.773 22.2628 237.421 22.908C237.073 23.5532 236.584 24.0552 235.956 24.4141C235.331 24.7729 234.603 24.9523 233.77 24.9523ZM233.77 23.7997C234.403 23.7997 234.923 23.6529 235.331 23.3593C235.74 23.0657 236.042 22.6797 236.238 22.2012C236.434 21.7227 236.532 21.2044 236.532 20.6462C236.532 20.088 236.434 19.5678 236.238 19.0858C236.042 18.6037 235.74 18.214 235.331 17.9168C234.923 17.6196 234.403 17.471 233.77 17.471C233.138 17.471 232.618 17.6196 232.209 17.9168C231.801 18.214 231.499 18.6037 231.303 19.0858C231.106 19.5678 231.008 20.088 231.008 20.6462C231.008 21.2044 231.106 21.7227 231.303 22.2012C231.499 22.6797 231.801 23.0657 232.209 23.3593C232.618 23.6529 233.138 23.7997 233.77 23.7997Z" fill="#00428F"/>
<path d="M243.979 24.9523C243.09 24.9523 242.324 24.7747 241.679 24.4195C241.039 24.0607 240.545 23.5605 240.196 22.9189C239.852 22.2737 239.68 21.5234 239.68 20.6679C239.68 19.8125 239.852 19.0586 240.196 18.4061C240.545 17.7501 241.029 17.239 241.649 16.8729C242.274 16.5032 243.002 16.3183 243.835 16.3183C244.315 16.3183 244.79 16.3908 245.258 16.5358C245.726 16.6808 246.153 16.9164 246.537 17.2426C246.921 17.5652 247.227 17.9929 247.455 18.5257C247.684 19.0586 247.798 19.7146 247.798 20.494V21.0377H240.689V19.9285H246.357C246.357 19.4573 246.253 19.0368 246.044 18.6671C245.84 18.2974 245.548 18.0056 245.168 17.7917C244.792 17.5779 244.347 17.471 243.835 17.471C243.271 17.471 242.782 17.5978 242.37 17.8515C241.962 18.1017 241.647 18.4279 241.427 18.8302C241.207 19.2326 241.097 19.6639 241.097 20.1242V20.8637C241.097 21.4944 241.217 22.029 241.457 22.4676C241.701 22.9026 242.04 23.2342 242.472 23.4626C242.904 23.6873 243.407 23.7997 243.979 23.7997C244.351 23.7997 244.688 23.7526 244.988 23.6583C245.292 23.5605 245.554 23.4155 245.774 23.2234C245.994 23.0276 246.165 22.7848 246.285 22.4948L247.654 22.8428C247.51 23.2632 247.267 23.633 246.927 23.9519C246.587 24.2673 246.167 24.5138 245.666 24.6914C245.166 24.8654 244.603 24.9523 243.979 24.9523Z" fill="#00428F"/>
<path d="M249.953 24.7784V16.427H251.37V20.059H252.307L255.621 16.427H257.447L253.724 20.4505L257.495 24.7784H255.669L252.643 21.2551H251.37V24.7784H249.953Z" fill="#00428F"/>
<path d="M258.506 17.6232V16.427H266V17.6232H262.973V24.7784H261.556V17.6232H258.506Z" fill="#00428F"/>
<path d="M97.469 39.6563V31.305H104.722V39.6563H103.305V32.5011H98.886V39.6563H97.469Z" fill="#00428F"/>
<path d="M107.31 42.788V31.305H108.679V32.6316H108.847C108.951 32.4866 109.095 32.3017 109.279 32.077C109.467 31.8487 109.736 31.6457 110.084 31.4681C110.436 31.2868 110.912 31.1962 111.513 31.1962C112.289 31.1962 112.974 31.372 113.566 31.7236C114.159 32.0752 114.621 32.5736 114.953 33.2188C115.286 33.864 115.452 34.6252 115.452 35.5024C115.452 36.3868 115.286 37.1534 114.953 37.8022C114.621 38.4474 114.161 38.9476 113.572 39.3029C112.984 39.6545 112.305 39.8303 111.537 39.8303C110.944 39.8303 110.47 39.7415 110.114 39.5638C109.758 39.3826 109.483 39.1778 109.291 38.9495C109.099 38.7175 108.951 38.5254 108.847 38.3731H108.727V42.788H107.31ZM108.703 35.4806C108.703 36.1113 108.805 36.6677 109.009 37.1498C109.213 37.6283 109.511 38.0034 109.904 38.2753C110.296 38.5435 110.776 38.6776 111.345 38.6776C111.937 38.6776 112.432 38.5362 112.828 38.2535C113.228 37.9672 113.528 37.5829 113.728 37.1009C113.933 36.6152 114.035 36.0751 114.035 35.4806C114.035 34.8934 113.935 34.3642 113.734 33.893C113.538 33.4182 113.24 33.043 112.84 32.7675C112.444 32.4884 111.945 32.3489 111.345 32.3489C110.768 32.3489 110.284 32.4812 109.892 32.7458C109.499 33.0068 109.203 33.3728 109.003 33.8441C108.803 34.3116 108.703 34.8572 108.703 35.4806Z" fill="#00428F"/>
<path d="M121.36 39.8303C120.527 39.8303 119.797 39.6508 119.168 39.292C118.544 38.9331 118.055 38.4311 117.703 37.7859C117.355 37.1407 117.181 36.3868 117.181 35.5241C117.181 34.6542 117.355 33.8948 117.703 33.246C118.055 32.5972 118.544 32.0933 119.168 31.7345C119.797 31.3756 120.527 31.1962 121.36 31.1962C122.192 31.1962 122.921 31.3756 123.545 31.7345C124.174 32.0933 124.662 32.5972 125.01 33.246C125.363 33.8948 125.539 34.6542 125.539 35.5241C125.539 36.3868 125.363 37.1407 125.01 37.7859C124.662 38.4311 124.174 38.9331 123.545 39.292C122.921 39.6508 122.192 39.8303 121.36 39.8303ZM121.36 38.6776C121.992 38.6776 122.513 38.5308 122.921 38.2372C123.329 37.9436 123.631 37.5576 123.828 37.0791C124.024 36.6007 124.122 36.0823 124.122 35.5241C124.122 34.9659 124.024 34.4458 123.828 33.9637C123.631 33.4816 123.329 33.0919 122.921 32.7947C122.513 32.4975 121.992 32.3489 121.36 32.3489C120.727 32.3489 120.207 32.4975 119.799 32.7947C119.39 33.0919 119.088 33.4816 118.892 33.9637C118.696 34.4458 118.598 34.9659 118.598 35.5241C118.598 36.0823 118.696 36.6007 118.892 37.0791C119.088 37.5576 119.39 37.9436 119.799 38.2372C120.207 38.5308 120.727 38.6776 121.36 38.6776Z" fill="#00428F"/>
<path d="M131.568 39.8303C130.68 39.8303 129.913 39.6527 129.269 39.2974C128.628 38.9386 128.134 38.4384 127.786 37.7968C127.442 37.1516 127.269 36.4013 127.269 35.5459C127.269 34.6904 127.442 33.9365 127.786 33.284C128.134 32.628 128.618 32.1169 129.239 31.7508C129.863 31.3811 130.592 31.1962 131.424 31.1962C131.905 31.1962 132.379 31.2687 132.847 31.4137C133.316 31.5587 133.742 31.7943 134.126 32.1205C134.511 32.4431 134.817 32.8708 135.045 33.4037C135.273 33.9365 135.387 34.5926 135.387 35.3719V35.9156H128.278V34.8064H133.946C133.946 34.3352 133.842 33.9147 133.634 33.545C133.43 33.1753 133.138 32.8835 132.757 32.6697C132.381 32.4558 131.937 32.3489 131.424 32.3489C130.86 32.3489 130.372 32.4757 129.959 32.7295C129.551 32.9796 129.237 33.3058 129.017 33.7081C128.797 34.1105 128.686 34.5418 128.686 35.0022V35.7416C128.686 36.3723 128.807 36.9069 129.047 37.3455C129.291 37.7805 129.629 38.1122 130.061 38.3405C130.494 38.5652 130.996 38.6776 131.568 38.6776C131.941 38.6776 132.277 38.6305 132.577 38.5362C132.881 38.4384 133.144 38.2934 133.364 38.1013C133.584 37.9055 133.754 37.6627 133.874 37.3727L135.243 37.7207C135.099 38.1412 134.857 38.5109 134.517 38.8298C134.176 39.1452 133.756 39.3917 133.256 39.5693C132.755 39.7433 132.193 39.8303 131.568 39.8303Z" fill="#00428F"/>
<path d="M137.543 39.6563V31.305H138.96V34.9369H139.896L143.211 31.305H145.036L141.313 35.3284L145.084 39.6563H143.259L140.233 36.1331H138.96V39.6563H137.543Z" fill="#00428F"/>
<path d="M146.096 32.5011V31.305H153.589V32.5011H150.563V39.6563H149.146V32.5011H146.096Z" fill="#00428F"/>
<path d="M161.828 34.8934V36.0896H156.737V34.8934H161.828ZM157.073 31.305V39.6563H155.656V31.305H157.073ZM162.909 31.305V39.6563H161.492V31.305H162.909Z" fill="#00428F"/>
<path d="M166.722 34.328H169.364C170.444 34.328 171.271 34.5763 171.843 35.0728C172.416 35.5694 172.702 36.1983 172.702 36.9595C172.702 37.4597 172.574 37.9146 172.318 38.3242C172.061 38.7302 171.685 39.0546 171.189 39.2974C170.692 39.5367 170.084 39.6563 169.364 39.6563H165.497V31.305H166.914V38.4601H169.364C169.924 38.4601 170.384 38.326 170.745 38.0578C171.105 37.7896 171.285 37.4452 171.285 37.0247C171.285 36.5825 171.105 36.2219 170.745 35.9428C170.384 35.6637 169.924 35.5241 169.364 35.5241H166.722V34.328ZM174.167 39.6563V31.305H175.584V39.6563H174.167Z" fill="#00428F"/>
<path d="M179.595 37.7642L184.038 31.305H185.671V39.6563H184.254V33.1971L179.835 39.6563H178.178V31.305H179.595V37.7642ZM183.101 28.5212H184.422C184.422 29.1084 184.198 29.5887 183.75 29.962C183.301 30.3353 182.693 30.522 181.924 30.522C181.168 30.522 180.565 30.3353 180.117 29.962C179.673 29.5887 179.451 29.1084 179.451 28.5212H180.772C180.772 28.8039 180.858 29.0522 181.03 29.2661C181.206 29.4799 181.504 29.5868 181.924 29.5868C182.345 29.5868 182.645 29.4799 182.825 29.2661C183.009 29.0522 183.101 28.8039 183.101 28.5212Z" fill="#00428F"/>
<path d="M194.439 37.7642L198.882 31.305H200.515V39.6563H199.098V33.1971L194.679 39.6563H193.022V31.305H194.439V37.7642Z" fill="#00428F"/>
<path d="M209.283 34.8934V36.0896H204.191V34.8934H209.283ZM204.527 31.305V39.6563H203.11V31.305H204.527ZM210.363 31.305V39.6563H208.946V31.305H210.363Z" fill="#00428F"/>
<path d="M216.698 39.8303C215.833 39.8303 215.089 39.6454 214.464 39.2757C213.84 38.906 213.359 38.3967 213.023 37.7479C212.687 37.099 212.519 36.3578 212.519 35.5241C212.519 34.6759 212.691 33.9274 213.035 33.2786C213.383 32.6262 213.868 32.1169 214.488 31.7508C215.113 31.3811 215.841 31.1962 216.674 31.1962C217.322 31.1962 217.907 31.305 218.427 31.5224C218.947 31.7399 219.374 32.0444 219.706 32.4359C220.038 32.8273 220.244 33.284 220.324 33.806H218.907C218.799 33.4254 218.559 33.0883 218.187 32.7947C217.819 32.4975 217.322 32.3489 216.698 32.3489C216.145 32.3489 215.661 32.4794 215.245 32.7403C214.833 32.9977 214.51 33.362 214.278 33.8332C214.05 34.3008 213.936 34.8499 213.936 35.4806C213.936 36.1258 214.048 36.6876 214.272 37.1661C214.5 37.6446 214.82 38.0161 215.233 38.2807C215.649 38.5453 216.137 38.6776 216.698 38.6776C217.066 38.6776 217.4 38.6196 217.701 38.5036C218.001 38.3876 218.255 38.2209 218.463 38.0034C218.671 37.7859 218.819 37.5249 218.907 37.2205H220.324C220.244 37.7134 220.046 38.1575 219.73 38.5526C219.418 38.944 219.003 39.2557 218.487 39.4877C217.975 39.7161 217.378 39.8303 216.698 39.8303Z" fill="#00428F"/>
<path d="M221.669 32.5011V31.305H229.163V32.5011H226.136V39.6563H224.719V32.5011H221.669Z" fill="#00428F"/>
<path d="M232.647 37.7642L237.09 31.305H238.723V39.6563H237.306V33.1971L232.887 39.6563H231.23V31.305H232.647V37.7642Z" fill="#00428F"/>
<path d="M240.063 32.5011V31.305H247.557V32.5011H244.53V39.6563H243.113V32.5011H240.063Z" fill="#00428F"/>
<path d="M250.536 42.788C250.296 42.788 250.082 42.7699 249.894 42.7337C249.706 42.701 249.575 42.6684 249.503 42.6358L249.864 41.5049C250.208 41.5846 250.512 41.6136 250.776 41.5919C251.04 41.5701 251.275 41.4632 251.479 41.2711C251.687 41.0826 251.877 40.7763 252.049 40.3522L252.313 39.6998L248.903 31.305H250.44L252.986 37.9599H253.082L255.628 31.305H257.165L253.25 40.8742C253.074 41.3055 252.856 41.6626 252.596 41.9453C252.335 42.2316 252.033 42.4437 251.689 42.5814C251.349 42.7192 250.964 42.788 250.536 42.788Z" fill="#00428F"/>
<path d="M258.507 32.5011V31.305H266V32.5011H262.974V39.6563H261.557V32.5011H258.507Z" fill="#00428F"/>
<path fill-rule="evenodd" clip-rule="evenodd" d="M0.675381 40.9475L9.83756 36.5942L15.0096 39.1799L5.89996 43.5584L0.675381 40.9475Z" fill="#00428F"/>
<path fill-rule="evenodd" clip-rule="evenodd" d="M7.89496 44.5555L17.0409 40.2077L22.2258 42.7896L13.2344 47.2238L7.89496 44.5555Z" fill="#00428F"/>
</svg>
