<?xml version="1.0" encoding="UTF-8"?>
<!DOCTYPE svg PUBLIC "-//W3C//DTD SVG 1.1//EN" "http://www.w3.org/Graphics/SVG/1.1/DTD/svg11.dtd">
<!-- Creator: CorelDRAW -->
<svg xmlns="http://www.w3.org/2000/svg" xml:space="preserve" width="7.4084mm" height="5.2918mm" version="1.1" style="shape-rendering:geometricPrecision; text-rendering:geometricPrecision; image-rendering:optimizeQuality; fill-rule:evenodd; clip-rule:evenodd"
viewBox="0 0 31.67 22.62"
 xmlns:xlink="http://www.w3.org/1999/xlink"
 xmlns:xodm="http://www.corel.com/coreldraw/odm/2003">
 <defs>
  <style type="text/css">
   <![CDATA[
    .fil0 {fill:#00428F;fill-rule:nonzero}
   ]]>
  </style>
 </defs>
 <g id="Слой_x0020_1">
  <metadata id="CorelCorpID_0Corel-Layer"/>
  <path class="fil0" d="M2.26 4.52l27.14 0c1.25,0 2.26,-1.01 2.26,-2.26 0,-1.25 -1.01,-2.26 -2.26,-2.26l-27.14 0c-1.25,0 -2.26,1.01 -2.26,2.26 0,1.25 1.01,2.26 2.26,2.26zm27.14 4.52l-27.14 0c-1.25,0 -2.26,1.01 -2.26,2.26 0,1.25 1.01,2.26 2.26,2.26l27.14 0c1.25,0 2.26,-1.01 2.26,-2.26 0,-1.25 -1.01,-2.26 -2.26,-2.26zm0 9.05l-27.14 0c-1.25,0 -2.26,1.01 -2.26,2.26 0,1.25 1.01,2.26 2.26,2.26l27.14 -0c1.25,0 2.26,-1.01 2.26,-2.26 0,-1.25 -1.01,-2.26 -2.26,-2.26z"/>
 </g>
</svg>
