<?xml version="1.0" encoding="UTF-8"?>
<!DOCTYPE svg PUBLIC "-//W3C//DTD SVG 1.1//EN" "http://www.w3.org/Graphics/SVG/1.1/DTD/svg11.dtd">
<!-- Creator: CorelDRAW -->
<svg xmlns="http://www.w3.org/2000/svg" xml:space="preserve" width="5.2884mm" height="5.2724mm" version="1.1" style="shape-rendering:geometricPrecision; text-rendering:geometricPrecision; image-rendering:optimizeQuality; fill-rule:evenodd; clip-rule:evenodd"
viewBox="0 0 18.06 18.01"
 xmlns:xlink="http://www.w3.org/1999/xlink"
 xmlns:xodm="http://www.corel.com/coreldraw/odm/2003">
 <defs>
  <style type="text/css">
   <![CDATA[
    .fil0 {fill:#00428F;fill-rule:nonzero}
   ]]>
  </style>
 </defs>
 <g id="Слой_x0020_1">
  <metadata id="CorelCorpID_0Corel-Layer"/>
  <path class="fil0" d="M15.73 9.94c-0.2,0 -0.41,-0.06 -0.61,-0.11 -0.4,-0.09 -0.8,-0.21 -1.18,-0.35 -0.2,-0.07 -0.41,-0.11 -0.62,-0.11 -0.69,0 -1.32,0.39 -1.62,1.01l-0.2 0.42c-0.88,-0.5 -1.69,-1.11 -2.41,-1.81 -0.7,-0.72 -1.31,-1.54 -1.81,-2.41l0.42 -0.19c0.62,-0.3 1.01,-0.93 1.01,-1.62 0,-0.21 -0.04,-0.42 -0.11,-0.62 -0.14,-0.39 -0.26,-0.79 -0.35,-1.19 -0.05,-0.2 -0.08,-0.41 -0.11,-0.61 -0.22,-1.3 -1.35,-2.25 -2.67,-2.25 -0.01,0 -0.03,0 -0.04,0l-2.72 0c-0,-0 -0,-0 -0,-0 -0.77,0 -1.51,0.33 -2.02,0.9 -0.44,0.5 -0.69,1.14 -0.69,1.8 0,0.12 0.01,0.25 0.03,0.37 0.49,3.76 2.21,7.26 4.89,9.94 2.68,2.68 6.18,4.4 9.94,4.89 0.06,0 0.12,0.01 0.18,0.01 0.06,0 0.12,-0 0.18,-0.01 0,0 0,0 0,0 0.67,0 1.31,-0.24 1.8,-0.69 0.57,-0.51 0.9,-1.25 0.9,-2.02 0,-0 0,-0 0,-0l0 -2.71c-0.01,-1.29 -0.92,-2.39 -2.19,-2.64l0 0zm0.44 5.42c-0,0.25 -0.11,0.5 -0.3,0.67 -0.17,0.15 -0.38,0.24 -0.61,0.24 -0.04,0 -0.09,-0 -0.13,-0.01 -3.37,-0.44 -6.51,-1.98 -8.92,-4.37 -2.41,-2.41 -3.97,-5.56 -4.41,-8.95 -0.01,-0.04 -0.01,-0.09 -0.01,-0.13 0,-0.23 0.08,-0.44 0.24,-0.61 0.17,-0.19 0.42,-0.3 0.67,-0.3 0,0 0,0 0.01,0l2.71 0c0.01,-0 0.02,-0 0.02,-0 0.42,0 0.79,0.29 0.88,0.71 0,0.24 0.08,0.5 0.14,0.74 0.1,0.47 0.24,0.94 0.42,1.39l-1.27 0.6c-0.22,0.1 -0.39,0.28 -0.47,0.51 -0.04,0.11 -0.07,0.23 -0.07,0.34 0,0.12 0.02,0.23 0.07,0.34 1.3,2.78 3.54,5.03 6.33,6.33 0.11,0.04 0.23,0.07 0.34,0.07 0.12,0 0.23,-0.02 0.34,-0.07 0.22,-0.08 0.41,-0.25 0.51,-0.47l0.57 -1.27c0.47,0.17 0.94,0.31 1.43,0.42 0.24,0.05 0.49,0.1 0.73,0.14 0.41,0.09 0.71,0.46 0.71,0.88 0,0.01 0,0.02 -0,0.02l0.08 2.79zm-5.33 -15.36c-0.21,0 -0.42,0 -0.63,0 -0.47,0.04 -0.83,0.43 -0.83,0.9 0,0.5 0.41,0.91 0.91,0.91 0.03,0 0.05,-0 0.08,-0l0.48 0c2.99,0 5.42,2.43 5.42,5.42 0,0.16 0,0.32 0,0.48 -0,0.03 -0,0.05 -0,0.08 0,0.47 0.36,0.86 0.83,0.9l0.07 0c0,0 0,0 0,0 0.47,0 0.86,-0.36 0.9,-0.82 0,-0.21 0,-0.42 0,-0.63 0,0 0,0 0,0 0,-3.99 -3.23,-7.23 -7.22,-7.23l0 0zm1.81 7.23c0,0.5 0.4,0.9 0.9,0.9 0.5,0 0.9,-0.4 0.9,-0.9 0,-2 -1.62,-3.62 -3.62,-3.62 -0.5,0 -0.9,0.4 -0.9,0.9 0,0.5 0.4,0.9 0.9,0.9 1,-0 1.81,0.81 1.81,1.81l-0 0z"/>
 </g>
</svg>
